ISO-10303-21;
HEADER;
FILE_DESCRIPTION (( 'STEP AP214' ),
    '1' );
FILE_NAME ('CDBQR42.STEP',
    '2024-06-05T11:29:59',
    ( '' ),
    ( '' ),
    'SwSTEP 2.0',
    'SolidWorks 2023',
    '' );
FILE_SCHEMA (( 'AUTOMOTIVE_DESIGN' ));
ENDSEC;

DATA;
#1 = EDGE_LOOP ( 'NONE', ( #869, #226, #162, #299 ) ) ;
#2 = MECHANICAL_DESIGN_GEOMETRIC_PRESENTATION_REPRESENTATION (  '', ( #75 ), #145 ) ;
#3 = SURFACE_SIDE_STYLE ('',( #176 ) ) ;
#4 = STYLED_ITEM ( 'NONE', ( #754 ), #79 ) ;
#5 =( GEOMETRIC_REPRESENTATION_CONTEXT ( 3 ) GLOBAL_UNCERTAINTY_ASSIGNED_CONTEXT ( ( #795 ) ) GLOBAL_UNIT_ASSIGNED_CONTEXT ( ( #694, #960, #344 ) ) REPRESENTATION_CONTEXT ( 'NONE', 'WORKASPACE' ) );
#6 = SURFACE_STYLE_USAGE ( .BOTH. , #182 ) ;
#7 = DIRECTION ( 'NONE',  ( 0.000000000000000000, 0.000000000000000000, 1.000000000000000000 ) ) ;
#8 = CARTESIAN_POINT ( 'NONE',  ( -0.2500000000000000000, 0.5400000000000000355, 0.2999999999999999889 ) ) ;
#9 = VERTEX_POINT ( 'NONE', #33 ) ;
#10 = PLANE ( 'NONE',  #653 ) ;
#11 = EDGE_CURVE ( 'NONE', #1057, #528, #88, .T. ) ;
#12 = CARTESIAN_POINT ( 'NONE',  ( 0.5000000000000000000, 0.000000000000000000, 0.2500000000000000000 ) ) ;
#13 = LINE ( 'NONE', #700, #580 ) ;
#14 = DIRECTION ( 'NONE',  ( -0.000000000000000000, 1.000000000000000000, 0.000000000000000000 ) ) ;
#15 = PLANE ( 'NONE',  #257 ) ;
#16 = VERTEX_POINT ( 'NONE', #917 ) ;
#17 = DIRECTION ( 'NONE',  ( 0.000000000000000000, 0.000000000000000000, 1.000000000000000000 ) ) ;
#18 = PLANE ( 'NONE',  #156 ) ;
#19 = ADVANCED_FACE ( 'NONE', ( #826 ), #223, .F. ) ;
#20 = SURFACE_SIDE_STYLE ('',( #527 ) ) ;
#21 = COLOUR_RGB ( '',0.2509803921568627416, 0.2509803921568627416, 0.2509803921568627416 ) ;
#22 =( GEOMETRIC_REPRESENTATION_CONTEXT ( 3 ) GLOBAL_UNCERTAINTY_ASSIGNED_CONTEXT ( ( #284 ) ) GLOBAL_UNIT_ASSIGNED_CONTEXT ( ( #31, #979, #269 ) ) REPRESENTATION_CONTEXT ( 'NONE', 'WORKASPACE' ) );
#23 = ORIENTED_EDGE ( 'NONE', *, *, #689, .F. ) ;
#24 = SURFACE_STYLE_USAGE ( .BOTH. , #1072 ) ;
#25 = STYLED_ITEM ( 'NONE', ( #988 ), #698 ) ;
#26 = VECTOR ( 'NONE', #1014, 1000.000000000000000 ) ;
#27 = PRESENTATION_LAYER_ASSIGNMENT (  '', '', ( #714 ) ) ;
#28 = SURFACE_STYLE_USAGE ( .BOTH. , #117 ) ;
#29 = CARTESIAN_POINT ( 'NONE',  ( -0.2500000000000000000, 0.5500000000000000444, 0.2999999999999999889 ) ) ;
#30 = CARTESIAN_POINT ( 'NONE',  ( 0.5000000000000000000, 0.5500000000000000444, -0.2999999999999999889 ) ) ;
#31 =( LENGTH_UNIT ( ) NAMED_UNIT ( * ) SI_UNIT ( .MILLI., .METRE. ) );
#32 = ADVANCED_FACE ( 'NONE', ( #1010 ), #278, .F. ) ;
#33 = CARTESIAN_POINT ( 'NONE',  ( -0.5000000000000000000, 0.5500000000000000444, -0.2999999999999999889 ) ) ;
#34 = CARTESIAN_POINT ( 'NONE',  ( -0.5000000000000000000, 0.5400000000000000355, -0.2999999999999999889 ) ) ;
#35 =( LENGTH_UNIT ( ) NAMED_UNIT ( * ) SI_UNIT ( .MILLI., .METRE. ) );
#36 = CARTESIAN_POINT ( 'NONE',  ( -0.5000000000000000000, 0.5400000000000000355, 1.807003620809174878E-16 ) ) ;
#37 = SURFACE_STYLE_USAGE ( .BOTH. , #381 ) ;
#38 = FACE_OUTER_BOUND ( 'NONE', #722, .T. ) ;
#39 = DIRECTION ( 'NONE',  ( -3.614007241618350250E-16, 0.000000000000000000, -1.000000000000000000 ) ) ;
#40 = SURFACE_STYLE_FILL_AREA ( #816 ) ;
#41 = VERTEX_POINT ( 'NONE', #645 ) ;
#42 = VECTOR ( 'NONE', #256, 1000.000000000000000 ) ;
#43 = CARTESIAN_POINT ( 'NONE',  ( -0.2500000000000000000, 0.5500000000000000444, -0.2999999999999999889 ) ) ;
#44 = PRESENTATION_LAYER_ASSIGNMENT (  '', '', ( #732 ) ) ;
#45 = COLOUR_RGB ( '',0.2509803921568627416, 0.2509803921568627416, 0.2509803921568627416 ) ;
#46 = SURFACE_SIDE_STYLE ('',( #462 ) ) ;
#47 = ORIENTED_EDGE ( 'NONE', *, *, #689, .T. ) ;
#48 = UNCERTAINTY_MEASURE_WITH_UNIT (LENGTH_MEASURE( 1.000000000000000082E-05 ), #319, 'distance_accuracy_value', 'NONE');
#49 = EDGE_CURVE ( 'NONE', #1126, #92, #474, .T. ) ;
#50 = SURFACE_STYLE_USAGE ( .BOTH. , #215 ) ;
#51 = SURFACE_SIDE_STYLE ('',( #40 ) ) ;
#52 = EDGE_LOOP ( 'NONE', ( #620, #895, #283, #744 ) ) ;
#53 =( NAMED_UNIT ( * ) PLANE_ANGLE_UNIT ( ) SI_UNIT ( $, .RADIAN. ) );
#54 = SURFACE_STYLE_FILL_AREA ( #1077 ) ;
#55 = ADVANCED_FACE ( 'NONE', ( #298 ), #470, .F. ) ;
#56 = FILL_AREA_STYLE_COLOUR ( '', #950 ) ;
#57 = STYLED_ITEM ( 'NONE', ( #221 ), #672 ) ;
#58 =( GEOMETRIC_REPRESENTATION_CONTEXT ( 3 ) GLOBAL_UNCERTAINTY_ASSIGNED_CONTEXT ( ( #387 ) ) GLOBAL_UNIT_ASSIGNED_CONTEXT ( ( #546, #731, #1083 ) ) REPRESENTATION_CONTEXT ( 'NONE', 'WORKASPACE' ) );
#59 = PRESENTATION_STYLE_ASSIGNMENT (( #192 ) ) ;
#60 = EDGE_CURVE ( 'NONE', #1119, #438, #304, .T. ) ;
#61 = VERTEX_POINT ( 'NONE', #67 ) ;
#62 = SURFACE_STYLE_USAGE ( .BOTH. , #1103 ) ;
#63 = PRESENTATION_STYLE_ASSIGNMENT (( #667 ) ) ;
#64 = DIRECTION ( 'NONE',  ( 0.000000000000000000, -1.000000000000000000, 0.000000000000000000 ) ) ;
#65 = EDGE_LOOP ( 'NONE', ( #415, #663, #701, #76 ) ) ;
#66 = LINE ( 'NONE', #930, #611 ) ;
#67 = CARTESIAN_POINT ( 'NONE',  ( 0.2000000000000000111, 0.000000000000000000, 0.2500000000000000000 ) ) ;
#68 = VERTEX_POINT ( 'NONE', #769 ) ;
#69 = EDGE_CURVE ( 'NONE', #444, #1029, #398, .T. ) ;
#70 = PRESENTATION_LAYER_ASSIGNMENT (  '', '', ( #1024 ) ) ;
#71 =( NAMED_UNIT ( * ) SI_UNIT ( $, .STERADIAN. ) SOLID_ANGLE_UNIT ( ) );
#72 = FILL_AREA_STYLE_COLOUR ( '', #410 ) ;
#73 = PRESENTATION_LAYER_ASSIGNMENT (  '', '', ( #592 ) ) ;
#74 = FILL_AREA_STYLE ('',( #493 ) ) ;
#75 = STYLED_ITEM ( 'NONE', ( #863 ), #1025 ) ;
#76 = ORIENTED_EDGE ( 'NONE', *, *, #907, .T. ) ;
#77 = FILL_AREA_STYLE_COLOUR ( '', #916 ) ;
#78 = CLOSED_SHELL ( 'NONE', ( #390, #19, #1088, #513, #965, #32 ) ) ;
#79 = ADVANCED_FACE ( 'NONE', ( #1112 ), #501, .F. ) ;
#80 = CARTESIAN_POINT ( 'NONE',  ( 0.000000000000000000, 0.5400000000000000355, 0.000000000000000000 ) ) ;
#81 = APPLICATION_PROTOCOL_DEFINITION ( 'draft international standard', 'automotive_design', 1998, #1108 ) ;
#82 = SURFACE_STYLE_FILL_AREA ( #74 ) ;
#83 = ORIENTED_EDGE ( 'NONE', *, *, #641, .T. ) ;
#84 = FILL_AREA_STYLE ('',( #252 ) ) ;
#85 = DIRECTION ( 'NONE',  ( 0.000000000000000000, 1.000000000000000000, 0.000000000000000000 ) ) ;
#86 = CARTESIAN_POINT ( 'NONE',  ( -0.5000000000000000000, 0.02000000000000000042, -0.2500000000000000000 ) ) ;
#87 = ADVANCED_FACE ( 'NONE', ( #311 ), #1036, .F. ) ;
#88 = LINE ( 'NONE', #422, #567 ) ;
#89 = FILL_AREA_STYLE ('',( #1039 ) ) ;
#90 =( LENGTH_UNIT ( ) NAMED_UNIT ( * ) SI_UNIT ( .MILLI., .METRE. ) );
#91 = LINE ( 'NONE', #805, #277 ) ;
#92 = VERTEX_POINT ( 'NONE', #161 ) ;
#93 = VECTOR ( 'NONE', #217, 1000.000000000000000 ) ;
#94 = DIRECTION ( 'NONE',  ( 0.000000000000000000, -1.000000000000000000, 0.000000000000000000 ) ) ;
#95 = CARTESIAN_POINT ( 'NONE',  ( 0.000000000000000000, 0.5400000000000000355, 0.000000000000000000 ) ) ;
#96 = LINE ( 'NONE', #164, #173 ) ;
#97 = FILL_AREA_STYLE ('',( #777 ) ) ;
#98 = EDGE_LOOP ( 'NONE', ( #458, #174, #1084, #773 ) ) ;
#99 = UNCERTAINTY_MEASURE_WITH_UNIT (LENGTH_MEASURE( 1.000000000000000082E-05 ), #601, 'distance_accuracy_value', 'NONE');
#100 =( NAMED_UNIT ( * ) PLANE_ANGLE_UNIT ( ) SI_UNIT ( $, .RADIAN. ) );
#101 = CARTESIAN_POINT ( 'NONE',  ( 3.252606517456510221E-17, 0.5400000000000000355, 0.2999999999999999889 ) ) ;
#102 = ORIENTED_EDGE ( 'NONE', *, *, #920, .T. ) ;
#103 = SURFACE_STYLE_FILL_AREA ( #615 ) ;
#104 = CARTESIAN_POINT ( 'NONE',  ( -0.5000000000000000000, 0.000000000000000000, -0.2500000000000000000 ) ) ;
#105 = PRESENTATION_STYLE_ASSIGNMENT (( #435 ) ) ;
#106 = FACE_OUTER_BOUND ( 'NONE', #380, .T. ) ;
#107 =( NAMED_UNIT ( * ) SI_UNIT ( $, .STERADIAN. ) SOLID_ANGLE_UNIT ( ) );
#108 = COLOUR_RGB ( '',0.2509803921568627416, 0.2509803921568627416, 0.2509803921568627416 ) ;
#109 = ORIENTED_EDGE ( 'NONE', *, *, #181, .T. ) ;
#110 = COLOUR_RGB ( '',0.000000000000000000, 0.000000000000000000, 0.000000000000000000 ) ;
#111 = PRESENTATION_LAYER_ASSIGNMENT (  '', '', ( #362 ) ) ;
#112 = UNCERTAINTY_MEASURE_WITH_UNIT (LENGTH_MEASURE( 1.000000000000000082E-05 ), #752, 'distance_accuracy_value', 'NONE');
#113 = VECTOR ( 'NONE', #137, 1000.000000000000000 ) ;
#114 = STYLED_ITEM ( 'NONE', ( #1067 ), #276 ) ;
#115 = PRESENTATION_STYLE_ASSIGNMENT (( #558 ) ) ;
#116 =( LENGTH_UNIT ( ) NAMED_UNIT ( * ) SI_UNIT ( .MILLI., .METRE. ) );
#117 = SURFACE_SIDE_STYLE ('',( #447 ) ) ;
#118 = PRESENTATION_STYLE_ASSIGNMENT (( #986 ) ) ;
#119 = PRESENTATION_STYLE_ASSIGNMENT (( #50 ) ) ;
#120 = DIRECTION ( 'NONE',  ( 0.000000000000000000, -1.000000000000000000, 0.000000000000000000 ) ) ;
#121 = SURFACE_STYLE_USAGE ( .BOTH. , #46 ) ;
#122 = EDGE_CURVE ( 'NONE', #186, #68, #512, .T. ) ;
#123 = ADVANCED_BREP_SHAPE_REPRESENTATION ( 'CDBQR42', ( #672, #286, #276, #281, #691 ), #1009 ) ;
#124 = ORIENTED_EDGE ( 'NONE', *, *, #231, .F. ) ;
#125 = UNCERTAINTY_MEASURE_WITH_UNIT (LENGTH_MEASURE( 1.000000000000000082E-05 ), #1017, 'distance_accuracy_value', 'NONE');
#126 = CARTESIAN_POINT ( 'NONE',  ( 0.2000000000000000111, 0.02000000000000000042, 0.2500000000000000000 ) ) ;
#127 = SURFACE_STYLE_FILL_AREA ( #468 ) ;
#128 = FILL_AREA_STYLE ('',( #296 ) ) ;
#129 =( NAMED_UNIT ( * ) SI_UNIT ( $, .STERADIAN. ) SOLID_ANGLE_UNIT ( ) );
#130 = STYLED_ITEM ( 'NONE', ( #835 ), #281 ) ;
#131 = EDGE_CURVE ( 'NONE', #346, #68, #91, .T. ) ;
#132 = ORIENTED_EDGE ( 'NONE', *, *, #368, .F. ) ;
#133 = MECHANICAL_DESIGN_GEOMETRIC_PRESENTATION_REPRESENTATION (  '', ( #609 ), #561 ) ;
#134 = VECTOR ( 'NONE', #160, 1000.000000000000000 ) ;
#135 =( GEOMETRIC_REPRESENTATION_CONTEXT ( 3 ) GLOBAL_UNCERTAINTY_ASSIGNED_CONTEXT ( ( #535 ) ) GLOBAL_UNIT_ASSIGNED_CONTEXT ( ( #892, #367, #222 ) ) REPRESENTATION_CONTEXT ( 'NONE', 'WORKASPACE' ) );
#136 = DIRECTION ( 'NONE',  ( 0.000000000000000000, -1.000000000000000000, 0.000000000000000000 ) ) ;
#137 = DIRECTION ( 'NONE',  ( 0.000000000000000000, -1.000000000000000000, 0.000000000000000000 ) ) ;
#138 = UNCERTAINTY_MEASURE_WITH_UNIT (LENGTH_MEASURE( 1.000000000000000082E-05 ), #139, 'distance_accuracy_value', 'NONE');
#139 =( LENGTH_UNIT ( ) NAMED_UNIT ( * ) SI_UNIT ( .MILLI., .METRE. ) );
#140 =( NAMED_UNIT ( * ) SI_UNIT ( $, .STERADIAN. ) SOLID_ANGLE_UNIT ( ) );
#141 =( NAMED_UNIT ( * ) PLANE_ANGLE_UNIT ( ) SI_UNIT ( $, .RADIAN. ) );
#142 = MECHANICAL_DESIGN_GEOMETRIC_PRESENTATION_REPRESENTATION (  '', ( #517 ), #860 ) ;
#143 = PRESENTATION_LAYER_ASSIGNMENT (  '', '', ( #593 ) ) ;
#144 = CARTESIAN_POINT ( 'NONE',  ( 0.000000000000000000, 0.5500000000000000444, 0.000000000000000000 ) ) ;
#145 =( GEOMETRIC_REPRESENTATION_CONTEXT ( 3 ) GLOBAL_UNCERTAINTY_ASSIGNED_CONTEXT ( ( #905 ) ) GLOBAL_UNIT_ASSIGNED_CONTEXT ( ( #881, #347, #431 ) ) REPRESENTATION_CONTEXT ( 'NONE', 'WORKASPACE' ) );
#146 = FACE_OUTER_BOUND ( 'NONE', #98, .T. ) ;
#147 = STYLED_ITEM ( 'NONE', ( #336 ), #242 ) ;
#148 = ORIENTED_EDGE ( 'NONE', *, *, #987, .T. ) ;
#149 = ORIENTED_EDGE ( 'NONE', *, *, #450, .T. ) ;
#150 = EDGE_CURVE ( 'NONE', #270, #1033, #365, .T. ) ;
#151 = CARTESIAN_POINT ( 'NONE',  ( -0.5000000000000000000, 0.02000000000000000042, -0.2500000000000000000 ) ) ;
#152 = FACE_OUTER_BOUND ( 'NONE', #331, .T. ) ;
#153 =( LENGTH_UNIT ( ) NAMED_UNIT ( * ) SI_UNIT ( .MILLI., .METRE. ) );
#154 = ORIENTED_EDGE ( 'NONE', *, *, #1012, .T. ) ;
#155 = PRESENTATION_STYLE_ASSIGNMENT (( #794 ) ) ;
#156 = AXIS2_PLACEMENT_3D ( 'NONE', #1053, #1040, #610 ) ;
#157 = AXIS2_PLACEMENT_3D ( 'NONE', #201, #566, #550 ) ;
#158 = CARTESIAN_POINT ( 'NONE',  ( -3.252606517456510221E-17, 0.5500000000000000444, -0.2999999999999999889 ) ) ;
#159 = ORIENTED_EDGE ( 'NONE', *, *, #1055, .T. ) ;
#160 = DIRECTION ( 'NONE',  ( 0.000000000000000000, -1.000000000000000000, 0.000000000000000000 ) ) ;
#161 = CARTESIAN_POINT ( 'NONE',  ( -0.5000000000000000000, 0.000000000000000000, 0.2500000000000000000 ) ) ;
#162 = ORIENTED_EDGE ( 'NONE', *, *, #893, .F. ) ;
#163 = SURFACE_STYLE_FILL_AREA ( #958 ) ;
#164 = CARTESIAN_POINT ( 'NONE',  ( 3.252606517456510221E-17, 0.5500000000000000444, 0.2999999999999999889 ) ) ;
#165 = EDGE_CURVE ( 'NONE', #326, #346, #978, .T. ) ;
#166 = SURFACE_STYLE_FILL_AREA ( #706 ) ;
#167 = ORIENTED_EDGE ( 'NONE', *, *, #196, .T. ) ;
#168 = CARTESIAN_POINT ( 'NONE',  ( -0.2500000000000000000, 0.5400000000000000355, 0.2999999999999999889 ) ) ;
#169 = FACE_OUTER_BOUND ( 'NONE', #998, .T. ) ;
#170 = PRESENTATION_LAYER_ASSIGNMENT (  '', '', ( #356 ) ) ;
#171 = DIRECTION ( 'NONE',  ( 0.000000000000000000, -1.000000000000000000, 0.000000000000000000 ) ) ;
#172 = CARTESIAN_POINT ( 'NONE',  ( 0.000000000000000000, 0.02000000000000000042, 0.000000000000000000 ) ) ;
#173 = VECTOR ( 'NONE', #1050, 1000.000000000000000 ) ;
#174 = ORIENTED_EDGE ( 'NONE', *, *, #49, .F. ) ;
#175 = COLOUR_RGB ( '',0.000000000000000000, 0.000000000000000000, 0.000000000000000000 ) ;
#176 = SURFACE_STYLE_FILL_AREA ( #89 ) ;
#177 = FILL_AREA_STYLE_COLOUR ( '', #879 ) ;
#178 = FILL_AREA_STYLE ('',( #889 ) ) ;
#179 = SURFACE_STYLE_USAGE ( .BOTH. , #1061 ) ;
#180 = EDGE_LOOP ( 'NONE', ( #646, #366, #1043, #212 ) ) ;
#181 = EDGE_CURVE ( 'NONE', #1029, #1002, #451, .T. ) ;
#182 = SURFACE_SIDE_STYLE ('',( #163 ) ) ;
#183 = DIRECTION ( 'NONE',  ( 0.000000000000000000, 0.000000000000000000, -1.000000000000000000 ) ) ;
#184 = CARTESIAN_POINT ( 'NONE',  ( -0.5000000000000000000, 0.5400000000000000355, 0.2999999999999999889 ) ) ;
#185 = SURFACE_STYLE_FILL_AREA ( #437 ) ;
#186 = VERTEX_POINT ( 'NONE', #265 ) ;
#187 = CARTESIAN_POINT ( 'NONE',  ( -0.2500000000000000000, 0.5500000000000000444, 0.2999999999999999889 ) ) ;
#188 = PRESENTATION_STYLE_ASSIGNMENT (( #695 ) ) ;
#189 = PRESENTATION_LAYER_ASSIGNMENT (  '', '', ( #647 ) ) ;
#190 = MECHANICAL_DESIGN_GEOMETRIC_PRESENTATION_REPRESENTATION (  '', ( #57 ), #1136 ) ;
#191 = ORIENTED_EDGE ( 'NONE', *, *, #1019, .F. ) ;
#192 = SURFACE_STYLE_USAGE ( .BOTH. , #628 ) ;
#193 = VECTOR ( 'NONE', #1116, 1000.000000000000000 ) ;
#194 = FACE_OUTER_BOUND ( 'NONE', #490, .T. ) ;
#195 = VECTOR ( 'NONE', #705, 1000.000000000000000 ) ;
#196 = EDGE_CURVE ( 'NONE', #707, #1057, #883, .T. ) ;
#197 =( NAMED_UNIT ( * ) SI_UNIT ( $, .STERADIAN. ) SOLID_ANGLE_UNIT ( ) );
#198 = SURFACE_STYLE_USAGE ( .BOTH. , #649 ) ;
#199 = SURFACE_STYLE_USAGE ( .BOTH. , #51 ) ;
#200 = ORIENTED_EDGE ( 'NONE', *, *, #60, .F. ) ;
#201 = CARTESIAN_POINT ( 'NONE',  ( 0.2000000000000000111, 0.02000000000000000042, 0.2500000000000000000 ) ) ;
#202 = FILL_AREA_STYLE_COLOUR ( '', #21 ) ;
#203 = DIRECTION ( 'NONE',  ( 1.000000000000000000, 0.000000000000000000, -2.168404344971005170E-16 ) ) ;
#204 = EDGE_CURVE ( 'NONE', #1062, #1119, #618, .T. ) ;
#205 =( NAMED_UNIT ( * ) SI_UNIT ( $, .STERADIAN. ) SOLID_ANGLE_UNIT ( ) );
#206 = UNCERTAINTY_MEASURE_WITH_UNIT (LENGTH_MEASURE( 1.000000000000000082E-05 ), #806, 'distance_accuracy_value', 'NONE');
#207 = FILL_AREA_STYLE ('',( #1087 ) ) ;
#208 = SURFACE_SIDE_STYLE ('',( #127 ) ) ;
#209 = DIRECTION ( 'NONE',  ( 0.000000000000000000, 0.000000000000000000, -1.000000000000000000 ) ) ;
#210 = CARTESIAN_POINT ( 'NONE',  ( -0.5000000000000000000, 0.02000000000000000042, 0.2500000000000000000 ) ) ;
#211 =( GEOMETRIC_REPRESENTATION_CONTEXT ( 3 ) GLOBAL_UNCERTAINTY_ASSIGNED_CONTEXT ( ( #267 ) ) GLOBAL_UNIT_ASSIGNED_CONTEXT ( ( #581, #295, #675 ) ) REPRESENTATION_CONTEXT ( 'NONE', 'WORKASPACE' ) );
#212 = ORIENTED_EDGE ( 'NONE', *, *, #607, .T. ) ;
#213 = PRESENTATION_LAYER_ASSIGNMENT (  '', '', ( #609 ) ) ;
#214 = CARTESIAN_POINT ( 'NONE',  ( -0.5000000000000000000, 0.5400000000000000355, -0.2999999999999999889 ) ) ;
#215 = SURFACE_SIDE_STYLE ('',( #1082 ) ) ;
#216 = VECTOR ( 'NONE', #758, 1000.000000000000000 ) ;
#217 = DIRECTION ( 'NONE',  ( 2.168404344971010101E-16, 0.000000000000000000, 1.000000000000000000 ) ) ;
#218 = PRODUCT_DEFINITION_CONTEXT ( 'detailed design', #1108, 'design' ) ;
#219 = EDGE_CURVE ( 'NONE', #993, #326, #603, .T. ) ;
#220 = FILL_AREA_STYLE_COLOUR ( '', #577 ) ;
#221 = PRESENTATION_STYLE_ASSIGNMENT (( #925 ) ) ;
#222 =( NAMED_UNIT ( * ) SI_UNIT ( $, .STERADIAN. ) SOLID_ANGLE_UNIT ( ) );
#223 = PLANE ( 'NONE',  #808 ) ;
#224 = DIRECTION ( 'NONE',  ( -1.000000000000000000, 0.000000000000000000, 2.168404344971005170E-16 ) ) ;
#225 = LINE ( 'NONE', #312, #882 ) ;
#226 = ORIENTED_EDGE ( 'NONE', *, *, #69, .F. ) ;
#227 = VECTOR ( 'NONE', #357, 1000.000000000000000 ) ;
#228 = MECHANICAL_DESIGN_GEOMETRIC_PRESENTATION_REPRESENTATION (  '', ( #651 ), #897 ) ;
#229 = SURFACE_STYLE_USAGE ( .BOTH. , #866 ) ;
#230 = LINE ( 'NONE', #402, #193 ) ;
#231 = EDGE_CURVE ( 'NONE', #993, #1033, #595, .T. ) ;
#232 = SURFACE_STYLE_USAGE ( .BOTH. , #1107 ) ;
#233 = CLOSED_SHELL ( 'NONE', ( #931, #55, #698, #853, #325, #79 ) ) ;
#234 = ORIENTED_EDGE ( 'NONE', *, *, #1130, .T. ) ;
#235 = CARTESIAN_POINT ( 'NONE',  ( -0.5000000000000000000, 0.5400000000000000355, 0.2999999999999999889 ) ) ;
#236 = LINE ( 'NONE', #584, #634 ) ;
#237 = ORIENTED_EDGE ( 'NONE', *, *, #122, .F. ) ;
#238 =( NAMED_UNIT ( * ) PLANE_ANGLE_UNIT ( ) SI_UNIT ( $, .RADIAN. ) );
#239 = DIRECTION ( 'NONE',  ( -1.000000000000000000, 0.000000000000000000, 1.084202172485503818E-16 ) ) ;
#240 = CARTESIAN_POINT ( 'NONE',  ( 0.5000000000000000000, 0.5500000000000000444, 0.000000000000000000 ) ) ;
#241 = ORIENTED_EDGE ( 'NONE', *, *, #1001, .T. ) ;
#242 = ADVANCED_FACE ( 'NONE', ( #106 ), #521, .T. ) ;
#243 = AXIS2_PLACEMENT_3D ( 'NONE', #1016, #747, #203 ) ;
#244 = MECHANICAL_DESIGN_GEOMETRIC_PRESENTATION_REPRESENTATION (  '', ( #362 ), #673 ) ;
#245 = DIRECTION ( 'NONE',  ( -1.000000000000000000, 0.000000000000000000, 0.000000000000000000 ) ) ;
#246 = ORIENTED_EDGE ( 'NONE', *, *, #716, .T. ) ;
#247 =( GEOMETRIC_REPRESENTATION_CONTEXT ( 3 ) GLOBAL_UNCERTAINTY_ASSIGNED_CONTEXT ( ( #125 ) ) GLOBAL_UNIT_ASSIGNED_CONTEXT ( ( #1017, #1090, #205 ) ) REPRESENTATION_CONTEXT ( 'NONE', 'WORKASPACE' ) );
#248 = PRESENTATION_LAYER_ASSIGNMENT (  '', '', ( #114 ) ) ;
#249 = LINE ( 'NONE', #977, #560 ) ;
#250 = DIRECTION ( 'NONE',  ( 1.000000000000000000, 0.000000000000000000, 0.000000000000000000 ) ) ;
#251 = ORIENTED_EDGE ( 'NONE', *, *, #886, .T. ) ;
#252 = FILL_AREA_STYLE_COLOUR ( '', #108 ) ;
#253 = FILL_AREA_STYLE_COLOUR ( '', #1080 ) ;
#254 = DIRECTION ( 'NONE',  ( 2.168404344971010101E-16, 0.000000000000000000, 1.000000000000000000 ) ) ;
#255 = ORIENTED_EDGE ( 'NONE', *, *, #798, .T. ) ;
#256 = DIRECTION ( 'NONE',  ( -1.000000000000000000, 0.000000000000000000, 0.000000000000000000 ) ) ;
#257 = AXIS2_PLACEMENT_3D ( 'NONE', #172, #522, #250 ) ;
#258 = EDGE_CURVE ( 'NONE', #666, #68, #874, .T. ) ;
#259 = ORIENTED_EDGE ( 'NONE', *, *, #150, .F. ) ;
#260 = VECTOR ( 'NONE', #393, 1000.000000000000000 ) ;
#261 = FILL_AREA_STYLE_COLOUR ( '', #376 ) ;
#262 =( GEOMETRIC_REPRESENTATION_CONTEXT ( 3 ) GLOBAL_UNCERTAINTY_ASSIGNED_CONTEXT ( ( #301 ) ) GLOBAL_UNIT_ASSIGNED_CONTEXT ( ( #940, #933, #588 ) ) REPRESENTATION_CONTEXT ( 'NONE', 'WORKASPACE' ) );
#263 = DIRECTION ( 'NONE',  ( 1.000000000000000000, 0.000000000000000000, -2.168404344971010101E-16 ) ) ;
#264 = PLANE ( 'NONE',  #765 ) ;
#265 = CARTESIAN_POINT ( 'NONE',  ( 0.5000000000000000000, 0.5500000000000000444, -0.2999999999999999889 ) ) ;
#266 = ORIENTED_EDGE ( 'NONE', *, *, #371, .T. ) ;
#267 = UNCERTAINTY_MEASURE_WITH_UNIT (LENGTH_MEASURE( 1.000000000000000082E-05 ), #581, 'distance_accuracy_value', 'NONE');
#268 =( LENGTH_UNIT ( ) NAMED_UNIT ( * ) SI_UNIT ( .MILLI., .METRE. ) );
#269 =( NAMED_UNIT ( * ) SI_UNIT ( $, .STERADIAN. ) SOLID_ANGLE_UNIT ( ) );
#270 = VERTEX_POINT ( 'NONE', #612 ) ;
#271 =( NAMED_UNIT ( * ) PLANE_ANGLE_UNIT ( ) SI_UNIT ( $, .RADIAN. ) );
#272 = LINE ( 'NONE', #378, #947 ) ;
#273 = MECHANICAL_DESIGN_GEOMETRIC_PRESENTATION_REPRESENTATION (  '', ( #446 ), #839 ) ;
#274 = CARTESIAN_POINT ( 'NONE',  ( 0.5000000000000000000, 0.02000000000000000042, 0.2500000000000000000 ) ) ;
#275 = VECTOR ( 'NONE', #552, 1000.000000000000000 ) ;
#276 = MANIFOLD_SOLID_BREP ( 'NONE', #78 ) ;
#277 = VECTOR ( 'NONE', #878, 1000.000000000000000 ) ;
#278 = PLANE ( 'NONE',  #594 ) ;
#279 = ORIENTED_EDGE ( 'NONE', *, *, #219, .F. ) ;
#280 = FILL_AREA_STYLE_COLOUR ( '', #802 ) ;
#281 = MANIFOLD_SOLID_BREP ( 'NONE', #1047 ) ;
#282 = DIRECTION ( 'NONE',  ( 0.000000000000000000, 0.000000000000000000, 1.000000000000000000 ) ) ;
#283 = ORIENTED_EDGE ( 'NONE', *, *, #554, .F. ) ;
#284 = UNCERTAINTY_MEASURE_WITH_UNIT (LENGTH_MEASURE( 1.000000000000000082E-05 ), #31, 'distance_accuracy_value', 'NONE');
#285 = DIRECTION ( 'NONE',  ( 0.000000000000000000, -1.000000000000000000, 0.000000000000000000 ) ) ;
#286 = MANIFOLD_SOLID_BREP ( 'NONE', #233 ) ;
#287 =( NAMED_UNIT ( * ) PLANE_ANGLE_UNIT ( ) SI_UNIT ( $, .RADIAN. ) );
#288 =( NAMED_UNIT ( * ) PLANE_ANGLE_UNIT ( ) SI_UNIT ( $, .RADIAN. ) );
#289 = CARTESIAN_POINT ( 'NONE',  ( 0.000000000000000000, 0.02000000000000000042, 0.000000000000000000 ) ) ;
#290 = VECTOR ( 'NONE', #531, 1000.000000000000000 ) ;
#291 = ADVANCED_FACE ( 'NONE', ( #472 ), #915, .T. ) ;
#292 = VECTOR ( 'NONE', #39, 1000.000000000000000 ) ;
#293 = LINE ( 'NONE', #664, #93 ) ;
#294 =( GEOMETRIC_REPRESENTATION_CONTEXT ( 3 ) GLOBAL_UNCERTAINTY_ASSIGNED_CONTEXT ( ( #658 ) ) GLOBAL_UNIT_ASSIGNED_CONTEXT ( ( #922, #238, #854 ) ) REPRESENTATION_CONTEXT ( 'NONE', 'WORKASPACE' ) );
#295 =( NAMED_UNIT ( * ) PLANE_ANGLE_UNIT ( ) SI_UNIT ( $, .RADIAN. ) );
#296 = FILL_AREA_STYLE_COLOUR ( '', #538 ) ;
#297 = FACE_OUTER_BOUND ( 'NONE', #788, .T. ) ;
#298 = FACE_OUTER_BOUND ( 'NONE', #1131, .T. ) ;
#299 = ORIENTED_EDGE ( 'NONE', *, *, #743, .T. ) ;
#300 = DIRECTION ( 'NONE',  ( 0.000000000000000000, 0.000000000000000000, 1.000000000000000000 ) ) ;
#301 = UNCERTAINTY_MEASURE_WITH_UNIT (LENGTH_MEASURE( 1.000000000000000082E-05 ), #940, 'distance_accuracy_value', 'NONE');
#302 = LINE ( 'NONE', #158, #392 ) ;
#303 = CARTESIAN_POINT ( 'NONE',  ( -0.5000000000000000000, 0.5500000000000000444, -0.2999999999999999889 ) ) ;
#304 = LINE ( 'NONE', #771, #918 ) ;
#305 = CARTESIAN_POINT ( 'NONE',  ( -0.5000000000000000000, 0.5400000000000000355, 1.807003620809174878E-16 ) ) ;
#306 = ORIENTED_EDGE ( 'NONE', *, *, #857, .F. ) ;
#307 = DIRECTION ( 'NONE',  ( 1.000000000000000000, 0.000000000000000000, 0.000000000000000000 ) ) ;
#308 = EDGE_CURVE ( 'NONE', #418, #9, #1110, .T. ) ;
#309 = LINE ( 'NONE', #511, #709 ) ;
#310 = DIRECTION ( 'NONE',  ( 0.000000000000000000, 0.000000000000000000, 1.000000000000000000 ) ) ;
#311 = FACE_OUTER_BOUND ( 'NONE', #548, .T. ) ;
#312 = CARTESIAN_POINT ( 'NONE',  ( -0.5000000000000000000, 0.02000000000000000042, 0.2500000000000000000 ) ) ;
#313 = ORIENTED_EDGE ( 'NONE', *, *, #570, .T. ) ;
#314 = DIRECTION ( 'NONE',  ( 0.000000000000000000, 0.000000000000000000, 1.000000000000000000 ) ) ;
#315 =( GEOMETRIC_REPRESENTATION_CONTEXT ( 3 ) GLOBAL_UNCERTAINTY_ASSIGNED_CONTEXT ( ( #1085 ) ) GLOBAL_UNIT_ASSIGNED_CONTEXT ( ( #268, #623, #536 ) ) REPRESENTATION_CONTEXT ( 'NONE', 'WORKASPACE' ) );
#316 = MECHANICAL_DESIGN_GEOMETRIC_PRESENTATION_REPRESENTATION (  '', ( #25 ), #58 ) ;
#317 = ADVANCED_FACE ( 'NONE', ( #499 ), #929, .T. ) ;
#318 = MECHANICAL_DESIGN_GEOMETRIC_PRESENTATION_REPRESENTATION (  '', ( #655 ), #135 ) ;
#319 =( LENGTH_UNIT ( ) NAMED_UNIT ( * ) SI_UNIT ( .MILLI., .METRE. ) );
#320 = DIRECTION ( 'NONE',  ( -1.084202172485503818E-16, 0.000000000000000000, 1.000000000000000000 ) ) ;
#321 = ORIENTED_EDGE ( 'NONE', *, *, #487, .F. ) ;
#322 = PRESENTATION_STYLE_ASSIGNMENT (( #62 ) ) ;
#323 = FACE_OUTER_BOUND ( 'NONE', #832, .T. ) ;
#324 = DIRECTION ( 'NONE',  ( 0.000000000000000000, -1.000000000000000000, 0.000000000000000000 ) ) ;
#325 = ADVANCED_FACE ( 'NONE', ( #323 ), #858, .F. ) ;
#326 = VERTEX_POINT ( 'NONE', #660 ) ;
#327 = DIRECTION ( 'NONE',  ( -1.000000000000000000, 0.000000000000000000, 0.000000000000000000 ) ) ;
#328 = SURFACE_STYLE_FILL_AREA ( #84 ) ;
#329 = DIRECTION ( 'NONE',  ( 1.000000000000000000, 0.000000000000000000, -1.084202172485503818E-16 ) ) ;
#330 =( NAMED_UNIT ( * ) SI_UNIT ( $, .STERADIAN. ) SOLID_ANGLE_UNIT ( ) );
#331 = EDGE_LOOP ( 'NONE', ( #353, #132, #770, #200 ) ) ;
#332 = SURFACE_SIDE_STYLE ('',( #967 ) ) ;
#333 = LINE ( 'NONE', #1066, #801 ) ;
#334 = CARTESIAN_POINT ( 'NONE',  ( 0.5000000000000000000, 0.02000000000000000042, 0.2500000000000000000 ) ) ;
#335 = PRESENTATION_LAYER_ASSIGNMENT (  '', '', ( #823 ) ) ;
#336 = PRESENTATION_STYLE_ASSIGNMENT (( #792 ) ) ;
#337 = FACE_OUTER_BOUND ( 'NONE', #590, .T. ) ;
#338 = ORIENTED_EDGE ( 'NONE', *, *, #530, .T. ) ;
#339 = COLOUR_RGB ( '',0.000000000000000000, 0.000000000000000000, 0.000000000000000000 ) ;
#340 = PLANE ( 'NONE',  #825 ) ;
#341 = MECHANICAL_DESIGN_GEOMETRIC_PRESENTATION_REPRESENTATION (  '', ( #114 ), #1094 ) ;
#342 = CARTESIAN_POINT ( 'NONE',  ( -0.5000000000000000000, 0.5500000000000000444, 0.2999999999999999889 ) ) ;
#343 = CARTESIAN_POINT ( 'NONE',  ( -0.5000000000000000000, 0.02000000000000000042, 0.2500000000000000000 ) ) ;
#344 =( NAMED_UNIT ( * ) SI_UNIT ( $, .STERADIAN. ) SOLID_ANGLE_UNIT ( ) );
#345 = CARTESIAN_POINT ( 'NONE',  ( 0.2000000000000000111, 0.02000000000000000042, 0.2500000000000000000 ) ) ;
#346 = VERTEX_POINT ( 'NONE', #1015 ) ;
#347 =( NAMED_UNIT ( * ) PLANE_ANGLE_UNIT ( ) SI_UNIT ( $, .RADIAN. ) );
#348 = PLANE ( 'NONE',  #1042 ) ;
#349 = LINE ( 'NONE', #334, #498 ) ;
#350 = EDGE_CURVE ( 'NONE', #41, #509, #477, .T. ) ;
#351 = CARTESIAN_POINT ( 'NONE',  ( -3.252606517456510221E-17, 0.02000000000000000042, -0.2999999999999999889 ) ) ;
#352 = DIRECTION ( 'NONE',  ( 1.000000000000000000, 0.000000000000000000, 0.000000000000000000 ) ) ;
#353 = ORIENTED_EDGE ( 'NONE', *, *, #204, .F. ) ;
#354 = CARTESIAN_POINT ( 'NONE',  ( -0.2000000000000000111, 0.02000000000000000042, 0.2500000000000000000 ) ) ;
#355 = UNCERTAINTY_MEASURE_WITH_UNIT (LENGTH_MEASURE( 1.000000000000000082E-05 ), #737, 'distance_accuracy_value', 'NONE');
#356 = STYLED_ITEM ( 'NONE', ( #571 ), #325 ) ;
#357 = DIRECTION ( 'NONE',  ( 0.000000000000000000, 0.000000000000000000, -1.000000000000000000 ) ) ;
#358 =( NAMED_UNIT ( * ) SI_UNIT ( $, .STERADIAN. ) SOLID_ANGLE_UNIT ( ) );
#359 = CARTESIAN_POINT ( 'NONE',  ( -0.2500000000000000000, 0.5500000000000000444, 0.2999999999999999889 ) ) ;
#360 = VECTOR ( 'NONE', #324, 1000.000000000000000 ) ;
#361 = EDGE_LOOP ( 'NONE', ( #608, #541, #23, #980 ) ) ;
#362 = STYLED_ITEM ( 'NONE', ( #1106 ), #1088 ) ;
#363 = DIRECTION ( 'NONE',  ( -2.168404344971010101E-16, 0.000000000000000000, 1.000000000000000000 ) ) ;
#364 = CARTESIAN_POINT ( 'NONE',  ( -0.2500000000000000000, 0.5500000000000000444, 0.000000000000000000 ) ) ;
#365 = LINE ( 'NONE', #359, #787 ) ;
#366 = ORIENTED_EDGE ( 'NONE', *, *, #131, .F. ) ;
#367 =( NAMED_UNIT ( * ) PLANE_ANGLE_UNIT ( ) SI_UNIT ( $, .RADIAN. ) );
#368 = EDGE_CURVE ( 'NONE', #16, #1062, #309, .T. ) ;
#369 = FILL_AREA_STYLE_COLOUR ( '', #1027 ) ;
#370 = FILL_AREA_STYLE_COLOUR ( '', #1097 ) ;
#371 = EDGE_CURVE ( 'NONE', #1091, #707, #249, .T. ) ;
#372 = MECHANICAL_DESIGN_GEOMETRIC_PRESENTATION_REPRESENTATION (  '', ( #647 ), #1078 ) ;
#373 = MECHANICAL_DESIGN_GEOMETRIC_PRESENTATION_REPRESENTATION (  '', ( #746 ), #425 ) ;
#374 =( LENGTH_UNIT ( ) NAMED_UNIT ( * ) SI_UNIT ( .MILLI., .METRE. ) );
#375 = MECHANICAL_DESIGN_GEOMETRIC_PRESENTATION_REPRESENTATION (  '', ( #452 ), #519 ) ;
#376 = COLOUR_RGB ( '',0.000000000000000000, 0.000000000000000000, 0.000000000000000000 ) ;
#377 = PRESENTATION_LAYER_ASSIGNMENT (  '', '', ( #972 ) ) ;
#378 = CARTESIAN_POINT ( 'NONE',  ( -0.5000000000000000000, 0.5500000000000000444, 0.2999999999999999889 ) ) ;
#379 = FILL_AREA_STYLE_COLOUR ( '', #827 ) ;
#380 = EDGE_LOOP ( 'NONE', ( #1023, #102, #246, #909 ) ) ;
#381 = SURFACE_SIDE_STYLE ('',( #725 ) ) ;
#382 = EDGE_CURVE ( 'NONE', #583, #1029, #703, .T. ) ;
#383 = LINE ( 'NONE', #830, #896 ) ;
#384 = SURFACE_SIDE_STYLE ('',( #831 ) ) ;
#385 = VERTEX_POINT ( 'NONE', #342 ) ;
#386 = FILL_AREA_STYLE ('',( #56 ) ) ;
#387 = UNCERTAINTY_MEASURE_WITH_UNIT (LENGTH_MEASURE( 1.000000000000000082E-05 ), #546, 'distance_accuracy_value', 'NONE');
#388 =( NAMED_UNIT ( * ) SI_UNIT ( $, .STERADIAN. ) SOLID_ANGLE_UNIT ( ) );
#389 = CARTESIAN_POINT ( 'NONE',  ( -0.5000000000000000000, 0.5500000000000000444, 0.2999999999999999889 ) ) ;
#390 = ADVANCED_FACE ( 'NONE', ( #1058 ), #18, .T. ) ;
#391 = ORIENTED_EDGE ( 'NONE', *, *, #371, .F. ) ;
#392 = VECTOR ( 'NONE', #329, 1000.000000000000000 ) ;
#393 = DIRECTION ( 'NONE',  ( 1.000000000000000000, 0.000000000000000000, -1.807003620809174878E-16 ) ) ;
#394 = AXIS2_PLACEMENT_3D ( 'NONE', #586, #314, #307 ) ;
#395 = PRESENTATION_LAYER_ASSIGNMENT (  '', '', ( #614 ) ) ;
#396 = DIRECTION ( 'NONE',  ( 1.000000000000000000, 0.000000000000000000, -1.807003620809174878E-16 ) ) ;
#397 = VECTOR ( 'NONE', #721, 1000.000000000000000 ) ;
#398 = LINE ( 'NONE', #844, #216 ) ;
#399 = ORIENTED_EDGE ( 'NONE', *, *, #641, .F. ) ;
#400 = EDGE_CURVE ( 'NONE', #438, #16, #333, .T. ) ;
#401 =( NAMED_UNIT ( * ) SI_UNIT ( $, .STERADIAN. ) SOLID_ANGLE_UNIT ( ) );
#402 = CARTESIAN_POINT ( 'NONE',  ( -0.5000000000000000000, 0.5500000000000000444, -0.2999999999999999889 ) ) ;
#403 = ORIENTED_EDGE ( 'NONE', *, *, #760, .T. ) ;
#404 = EDGE_CURVE ( 'NONE', #503, #945, #600, .T. ) ;
#405 =( NAMED_UNIT ( * ) SI_UNIT ( $, .STERADIAN. ) SOLID_ANGLE_UNIT ( ) );
#406 = DIRECTION ( 'NONE',  ( 0.000000000000000000, 0.000000000000000000, -1.000000000000000000 ) ) ;
#407 = ORIENTED_EDGE ( 'NONE', *, *, #780, .T. ) ;
#408 = STYLED_ITEM ( 'NONE', ( #119 ), #291 ) ;
#409 = STYLED_ITEM ( 'NONE', ( #644 ), #537 ) ;
#410 = COLOUR_RGB ( '',0.000000000000000000, 0.000000000000000000, 0.000000000000000000 ) ;
#411 = FILL_AREA_STYLE ('',( #220 ) ) ;
#412 = VECTOR ( 'NONE', #569, 1000.000000000000000 ) ;
#413 = SURFACE_STYLE_FILL_AREA ( #855 ) ;
#414 = CLOSED_SHELL ( 'NONE', ( #723, #291, #1038, #1102, #602, #1025 ) ) ;
#415 = ORIENTED_EDGE ( 'NONE', *, *, #204, .T. ) ;
#416 = DIRECTION ( 'NONE',  ( 1.000000000000000000, 0.000000000000000000, 0.000000000000000000 ) ) ;
#417 = ADVANCED_FACE ( 'NONE', ( #699 ), #348, .T. ) ;
#418 = VERTEX_POINT ( 'NONE', #790 ) ;
#419 = LINE ( 'NONE', #1052, #483 ) ;
#420 = DIRECTION ( 'NONE',  ( 0.000000000000000000, -1.000000000000000000, 0.000000000000000000 ) ) ;
#421 = DIRECTION ( 'NONE',  ( 0.000000000000000000, 0.000000000000000000, 1.000000000000000000 ) ) ;
#422 = CARTESIAN_POINT ( 'NONE',  ( -0.5000000000000000000, 0.02000000000000000042, -0.2500000000000000000 ) ) ;
#423 = SURFACE_STYLE_USAGE ( .BOTH. , #332 ) ;
#424 = AXIS2_PLACEMENT_3D ( 'NONE', #484, #848, #239 ) ;
#425 =( GEOMETRIC_REPRESENTATION_CONTEXT ( 3 ) GLOBAL_UNCERTAINTY_ASSIGNED_CONTEXT ( ( #728 ) ) GLOBAL_UNIT_ASSIGNED_CONTEXT ( ( #606, #100, #775 ) ) REPRESENTATION_CONTEXT ( 'NONE', 'WORKASPACE' ) );
#426 = CARTESIAN_POINT ( 'NONE',  ( 0.2000000000000000111, 0.02000000000000000042, -0.2500000000000000000 ) ) ;
#427 = VECTOR ( 'NONE', #1111, 1000.000000000000000 ) ;
#428 = DIRECTION ( 'NONE',  ( 0.000000000000000000, -1.000000000000000000, 0.000000000000000000 ) ) ;
#429 = VERTEX_POINT ( 'NONE', #440 ) ;
#430 = MECHANICAL_DESIGN_GEOMETRIC_PRESENTATION_REPRESENTATION (  '', ( #4 ), #524 ) ;
#431 =( NAMED_UNIT ( * ) SI_UNIT ( $, .STERADIAN. ) SOLID_ANGLE_UNIT ( ) );
#432 = PRESENTATION_LAYER_ASSIGNMENT (  '', '', ( #147 ) ) ;
#433 = EDGE_CURVE ( 'NONE', #1069, #945, #796, .T. ) ;
#434 = DIRECTION ( 'NONE',  ( -0.000000000000000000, 1.000000000000000000, 0.000000000000000000 ) ) ;
#435 = SURFACE_STYLE_USAGE ( .BOTH. , #518 ) ;
#436 = CARTESIAN_POINT ( 'NONE',  ( 0.2000000000000000111, 0.000000000000000000, -0.2500000000000000000 ) ) ;
#437 = FILL_AREA_STYLE ('',( #626 ) ) ;
#438 = VERTEX_POINT ( 'NONE', #214 ) ;
#439 = CARTESIAN_POINT ( 'NONE',  ( 0.5000000000000000000, 0.000000000000000000, -0.2500000000000000000 ) ) ;
#440 = CARTESIAN_POINT ( 'NONE',  ( -0.2000000000000000111, 0.000000000000000000, -0.2500000000000000000 ) ) ;
#441 =( NAMED_UNIT ( * ) PLANE_ANGLE_UNIT ( ) SI_UNIT ( $, .RADIAN. ) );
#442 = CARTESIAN_POINT ( 'NONE',  ( 0.000000000000000000, 0.5500000000000000444, 0.000000000000000000 ) ) ;
#443 = CARTESIAN_POINT ( 'NONE',  ( 0.5000000000000000000, 0.000000000000000000, 0.2500000000000000000 ) ) ;
#444 = VERTEX_POINT ( 'NONE', #1092 ) ;
#445 = UNCERTAINTY_MEASURE_WITH_UNIT (LENGTH_MEASURE( 1.000000000000000082E-05 ), #116, 'distance_accuracy_value', 'NONE');
#446 = STYLED_ITEM ( 'NONE', ( #115 ), #286 ) ;
#447 = SURFACE_STYLE_FILL_AREA ( #544 ) ;
#448 = DIRECTION ( 'NONE',  ( 0.000000000000000000, 0.000000000000000000, -1.000000000000000000 ) ) ;
#449 = VECTOR ( 'NONE', #120, 1000.000000000000000 ) ;
#450 = EDGE_CURVE ( 'NONE', #471, #418, #556, .T. ) ;
#451 = LINE ( 'NONE', #436, #751 ) ;
#452 = STYLED_ITEM ( 'NONE', ( #105 ), #931 ) ;
#453 = ORIENTED_EDGE ( 'NONE', *, *, #1130, .F. ) ;
#454 = VECTOR ( 'NONE', #171, 1000.000000000000000 ) ;
#455 = DIRECTION ( 'NONE',  ( 1.084202172485503818E-16, 0.000000000000000000, -1.000000000000000000 ) ) ;
#456 = DIRECTION ( 'NONE',  ( -1.084202172485503818E-16, 0.000000000000000000, -1.000000000000000000 ) ) ;
#457 = PRESENTATION_STYLE_ASSIGNMENT (( #121 ) ) ;
#458 = ORIENTED_EDGE ( 'NONE', *, *, #487, .T. ) ;
#459 = CARTESIAN_POINT ( 'NONE',  ( -0.5000000000000000000, 0.000000000000000000, 0.2500000000000000000 ) ) ;
#460 = PLANE ( 'NONE',  #932 ) ;
#461 = AXIS2_PLACEMENT_3D ( 'NONE', #305, #596, #955 ) ;
#462 = SURFACE_STYLE_FILL_AREA ( #562 ) ;
#463 = VERTEX_POINT ( 'NONE', #829 ) ;
#464 = VECTOR ( 'NONE', #300, 1000.000000000000000 ) ;
#465 = UNCERTAINTY_MEASURE_WITH_UNIT (LENGTH_MEASURE( 1.000000000000000082E-05 ), #473, 'distance_accuracy_value', 'NONE');
#466 = EDGE_CURVE ( 'NONE', #793, #429, #910, .T. ) ;
#467 = PRESENTATION_LAYER_ASSIGNMENT (  '', '', ( #674 ) ) ;
#468 = FILL_AREA_STYLE ('',( #1007 ) ) ;
#469 = LINE ( 'NONE', #753, #862 ) ;
#470 = PLANE ( 'NONE',  #846 ) ;
#471 = VERTEX_POINT ( 'NONE', #912 ) ;
#472 = FACE_OUTER_BOUND ( 'NONE', #942, .T. ) ;
#473 =( LENGTH_UNIT ( ) NAMED_UNIT ( * ) SI_UNIT ( .MILLI., .METRE. ) );
#474 = LINE ( 'NONE', #210, #113 ) ;
#475 = ORIENTED_EDGE ( 'NONE', *, *, #60, .T. ) ;
#476 = UNCERTAINTY_MEASURE_WITH_UNIT (LENGTH_MEASURE( 1.000000000000000082E-05 ), #545, 'distance_accuracy_value', 'NONE');
#477 = LINE ( 'NONE', #840, #819 ) ;
#478 = DIRECTION ( 'NONE',  ( -1.807003620809174878E-16, 0.000000000000000000, -1.000000000000000000 ) ) ;
#479 = COLOUR_RGB ( '',0.2509803921568627416, 0.2509803921568627416, 0.2509803921568627416 ) ;
#480 = ORIENTED_EDGE ( 'NONE', *, *, #1001, .F. ) ;
#481 = AXIS2_PLACEMENT_3D ( 'NONE', #80, #685, #416 ) ;
#482 = SURFACE_STYLE_FILL_AREA ( #386 ) ;
#483 = VECTOR ( 'NONE', #94, 1000.000000000000000 ) ;
#484 = CARTESIAN_POINT ( 'NONE',  ( -3.252606517456510221E-17, 0.5400000000000000355, -0.2999999999999999889 ) ) ;
#485 = SURFACE_SIDE_STYLE ('',( #413 ) ) ;
#486 = DIRECTION ( 'NONE',  ( -1.000000000000000000, 0.000000000000000000, -1.084202172485503818E-16 ) ) ;
#487 = EDGE_CURVE ( 'NONE', #528, #92, #640, .T. ) ;
#488 = ORIENTED_EDGE ( 'NONE', *, *, #11, .F. ) ;
#489 = CARTESIAN_POINT ( 'NONE',  ( 0.000000000000000000, 0.02000000000000000042, 0.000000000000000000 ) ) ;
#490 = EDGE_LOOP ( 'NONE', ( #891, #279, #47, #949 ) ) ;
#491 = SURFACE_STYLE_FILL_AREA ( #411 ) ;
#492 = FILL_AREA_STYLE ('',( #72 ) ) ;
#493 = FILL_AREA_STYLE_COLOUR ( '', #339 ) ;
#494 = VECTOR ( 'NONE', #224, 1000.000000000000000 ) ;
#495 = EDGE_LOOP ( 'NONE', ( #759, #191, #391, #159 ) ) ;
#496 = DIRECTION ( 'NONE',  ( 0.000000000000000000, -1.000000000000000000, 0.000000000000000000 ) ) ;
#497 = AXIS2_PLACEMENT_3D ( 'NONE', #343, #1133, #791 ) ;
#498 = VECTOR ( 'NONE', #448, 1000.000000000000000 ) ;
#499 = FACE_OUTER_BOUND ( 'NONE', #514, .T. ) ;
#500 = LINE ( 'NONE', #1105, #360 ) ;
#501 = PLANE ( 'NONE',  #502 ) ;
#502 = AXIS2_PLACEMENT_3D ( 'NONE', #851, #486, #320 ) ;
#503 = VERTEX_POINT ( 'NONE', #34 ) ;
#504 = CARTESIAN_POINT ( 'NONE',  ( -0.5000000000000000000, 0.5500000000000000444, 0.2999999999999999889 ) ) ;
#505 = PRODUCT_DEFINITION ( 'UNKNOWN', '', #1046, #218 ) ;
#506 = SURFACE_SIDE_STYLE ('',( #959 ) ) ;
#507 = DIRECTION ( 'NONE',  ( 1.000000000000000000, 0.000000000000000000, -1.084202172485503818E-16 ) ) ;
#508 = APPLICATION_CONTEXT ( 'automotive_design' ) ;
#509 = VERTEX_POINT ( 'NONE', #995 ) ;
#510 = CARTESIAN_POINT ( 'NONE',  ( -0.2500000000000000000, 0.5400000000000000355, 0.2999999999999999889 ) ) ;
#511 = CARTESIAN_POINT ( 'NONE',  ( -0.5000000000000000000, 0.5400000000000000355, 0.2999999999999999889 ) ) ;
#512 = LINE ( 'NONE', #30, #991 ) ;
#513 = ADVANCED_FACE ( 'NONE', ( #906 ), #1005, .F. ) ;
#514 = EDGE_LOOP ( 'NONE', ( #740, #683, #875, #755, #407, #807 ) ) ;
#515 = FACE_OUTER_BOUND ( 'NONE', #928, .T. ) ;
#516 = MECHANICAL_DESIGN_GEOMETRIC_PRESENTATION_REPRESENTATION (  '', ( #1024 ), #1114 ) ;
#517 = STYLED_ITEM ( 'NONE', ( #735 ), #513 ) ;
#518 = SURFACE_SIDE_STYLE ('',( #797 ) ) ;
#519 =( GEOMETRIC_REPRESENTATION_CONTEXT ( 3 ) GLOBAL_UNCERTAINTY_ASSIGNED_CONTEXT ( ( #565 ) ) GLOBAL_UNIT_ASSIGNED_CONTEXT ( ( #971, #441, #358 ) ) REPRESENTATION_CONTEXT ( 'NONE', 'WORKASPACE' ) );
#520 = VECTOR ( 'NONE', #697, 1000.000000000000000 ) ;
#521 = PLANE ( 'NONE',  #597 ) ;
#522 = DIRECTION ( 'NONE',  ( -0.000000000000000000, 1.000000000000000000, 0.000000000000000000 ) ) ;
#523 = EDGE_LOOP ( 'NONE', ( #1018, #251, #313, #679 ) ) ;
#524 =( GEOMETRIC_REPRESENTATION_CONTEXT ( 3 ) GLOBAL_UNCERTAINTY_ASSIGNED_CONTEXT ( ( #969 ) ) GLOBAL_UNIT_ASSIGNED_CONTEXT ( ( #153, #668, #330 ) ) REPRESENTATION_CONTEXT ( 'NONE', 'WORKASPACE' ) );
#525 = DIRECTION ( 'NONE',  ( 1.000000000000000000, 0.000000000000000000, 0.000000000000000000 ) ) ;
#526 = LINE ( 'NONE', #426, #42 ) ;
#527 = SURFACE_STYLE_FILL_AREA ( #178 ) ;
#528 = VERTEX_POINT ( 'NONE', #104 ) ;
#529 =( LENGTH_UNIT ( ) NAMED_UNIT ( * ) SI_UNIT ( .MILLI., .METRE. ) );
#530 = EDGE_CURVE ( 'NONE', #41, #61, #803, .T. ) ;
#531 = DIRECTION ( 'NONE',  ( 1.000000000000000000, 0.000000000000000000, -1.084202172485503818E-16 ) ) ;
#532 = SURFACE_STYLE_FILL_AREA ( #97 ) ;
#533 = ORIENTED_EDGE ( 'NONE', *, *, #466, .F. ) ;
#534 = LINE ( 'NONE', #389, #412 ) ;
#535 = UNCERTAINTY_MEASURE_WITH_UNIT (LENGTH_MEASURE( 1.000000000000000082E-05 ), #892, 'distance_accuracy_value', 'NONE');
#536 =( NAMED_UNIT ( * ) SI_UNIT ( $, .STERADIAN. ) SOLID_ANGLE_UNIT ( ) );
#537 = ADVANCED_FACE ( 'NONE', ( #194 ), #1086, .T. ) ;
#538 = COLOUR_RGB ( '',0.000000000000000000, 0.000000000000000000, 0.000000000000000000 ) ;
#539 =( NAMED_UNIT ( * ) PLANE_ANGLE_UNIT ( ) SI_UNIT ( $, .RADIAN. ) );
#540 = COLOUR_RGB ( '',0.2509803921568627416, 0.2509803921568627416, 0.2509803921568627416 ) ;
#541 = ORIENTED_EDGE ( 'NONE', *, *, #404, .F. ) ;
#542 = CARTESIAN_POINT ( 'NONE',  ( 0.2000000000000000111, 0.02000000000000000042, -0.2500000000000000000 ) ) ;
#543 = MECHANICAL_DESIGN_GEOMETRIC_PRESENTATION_REPRESENTATION (  '', ( #147 ), #5 ) ;
#544 = FILL_AREA_STYLE ('',( #280 ) ) ;
#545 =( LENGTH_UNIT ( ) NAMED_UNIT ( * ) SI_UNIT ( .MILLI., .METRE. ) );
#546 =( LENGTH_UNIT ( ) NAMED_UNIT ( * ) SI_UNIT ( .MILLI., .METRE. ) );
#547 = DIRECTION ( 'NONE',  ( 0.000000000000000000, -1.000000000000000000, 0.000000000000000000 ) ) ;
#548 = EDGE_LOOP ( 'NONE', ( #585, #237, #935, #852 ) ) ;
#549 = UNCERTAINTY_MEASURE_WITH_UNIT (LENGTH_MEASURE( 1.000000000000000082E-05 ), #35, 'distance_accuracy_value', 'NONE');
#550 = DIRECTION ( 'NONE',  ( -2.168404344971010101E-16, 0.000000000000000000, -1.000000000000000000 ) ) ;
#551 =( LENGTH_UNIT ( ) NAMED_UNIT ( * ) SI_UNIT ( .MILLI., .METRE. ) );
#552 = DIRECTION ( 'NONE',  ( -3.614007241618350250E-16, 0.000000000000000000, -1.000000000000000000 ) ) ;
#553 = PRESENTATION_STYLE_ASSIGNMENT (( #199 ) ) ;
#554 = EDGE_CURVE ( 'NONE', #1126, #1091, #225, .T. ) ;
#555 = ORIENTED_EDGE ( 'NONE', *, *, #219, .T. ) ;
#556 = LINE ( 'NONE', #187, #1096 ) ;
#557 = SURFACE_STYLE_FILL_AREA ( #207 ) ;
#558 = SURFACE_STYLE_USAGE ( .BOTH. , #208 ) ;
#559 = SURFACE_SIDE_STYLE ('',( #1008 ) ) ;
#560 = VECTOR ( 'NONE', #1049, 1000.000000000000000 ) ;
#561 =( GEOMETRIC_REPRESENTATION_CONTEXT ( 3 ) GLOBAL_UNCERTAINTY_ASSIGNED_CONTEXT ( ( #206 ) ) GLOBAL_UNIT_ASSIGNED_CONTEXT ( ( #806, #619, #107 ) ) REPRESENTATION_CONTEXT ( 'NONE', 'WORKASPACE' ) );
#562 = FILL_AREA_STYLE ('',( #1000 ) ) ;
#563 = MECHANICAL_DESIGN_GEOMETRIC_PRESENTATION_REPRESENTATION (  '', ( #1065 ), #968 ) ;
#564 =( GEOMETRIC_REPRESENTATION_CONTEXT ( 3 ) GLOBAL_UNCERTAINTY_ASSIGNED_CONTEXT ( ( #1003 ) ) GLOBAL_UNIT_ASSIGNED_CONTEXT ( ( #624, #741, #388 ) ) REPRESENTATION_CONTEXT ( 'NONE', 'WORKASPACE' ) );
#565 = UNCERTAINTY_MEASURE_WITH_UNIT (LENGTH_MEASURE( 1.000000000000000082E-05 ), #971, 'distance_accuracy_value', 'NONE');
#566 = DIRECTION ( 'NONE',  ( 1.000000000000000000, 0.000000000000000000, -2.168404344971010101E-16 ) ) ;
#567 = VECTOR ( 'NONE', #990, 1000.000000000000000 ) ;
#568 =( NAMED_UNIT ( * ) SI_UNIT ( $, .STERADIAN. ) SOLID_ANGLE_UNIT ( ) );
#569 = DIRECTION ( 'NONE',  ( 1.000000000000000000, 0.000000000000000000, -2.168404344971010101E-16 ) ) ;
#570 = EDGE_CURVE ( 'NONE', #1113, #41, #901, .T. ) ;
#571 = PRESENTATION_STYLE_ASSIGNMENT (( #587 ) ) ;
#572 = DIRECTION ( 'NONE',  ( -1.000000000000000000, 0.000000000000000000, 1.807003620809174878E-16 ) ) ;
#573 = SURFACE_STYLE_FILL_AREA ( #1022 ) ;
#574 = ADVANCED_FACE ( 'NONE', ( #1137 ), #15, .F. ) ;
#575 =( NAMED_UNIT ( * ) PLANE_ANGLE_UNIT ( ) SI_UNIT ( $, .RADIAN. ) );
#576 = PRESENTATION_STYLE_ASSIGNMENT (( #232 ) ) ;
#577 = COLOUR_RGB ( '',0.000000000000000000, 0.000000000000000000, 0.000000000000000000 ) ;
#578 = PRESENTATION_LAYER_ASSIGNMENT (  '', '', ( #746 ) ) ;
#579 = ORIENTED_EDGE ( 'NONE', *, *, #554, .T. ) ;
#580 = VECTOR ( 'NONE', #7, 1000.000000000000000 ) ;
#581 =( LENGTH_UNIT ( ) NAMED_UNIT ( * ) SI_UNIT ( .MILLI., .METRE. ) );
#582 = CARTESIAN_POINT ( 'NONE',  ( -0.2000000000000000111, 0.000000000000000000, 0.2500000000000000000 ) ) ;
#583 = VERTEX_POINT ( 'NONE', #443 ) ;
#584 = CARTESIAN_POINT ( 'NONE',  ( 0.5000000000000000000, 0.5500000000000000444, 0.2999999999999999889 ) ) ;
#585 = ORIENTED_EDGE ( 'NONE', *, *, #131, .T. ) ;
#586 = CARTESIAN_POINT ( 'NONE',  ( 0.2000000000000000111, 0.02000000000000000042, -0.2500000000000000000 ) ) ;
#587 = SURFACE_STYLE_USAGE ( .BOTH. , #1026 ) ;
#588 =( NAMED_UNIT ( * ) SI_UNIT ( $, .STERADIAN. ) SOLID_ANGLE_UNIT ( ) );
#589 = MECHANICAL_DESIGN_GEOMETRIC_PRESENTATION_REPRESENTATION (  '', ( #130 ), #1134 ) ;
#590 = EDGE_LOOP ( 'NONE', ( #475, #1037, #687, #255 ) ) ;
#591 = DIRECTION ( 'NONE',  ( -2.168404344971010101E-16, 0.000000000000000000, -1.000000000000000000 ) ) ;
#592 = STYLED_ITEM ( 'NONE', ( #884 ), #602 ) ;
#593 = STYLED_ITEM ( 'NONE', ( #768 ), #853 ) ;
#594 = AXIS2_PLACEMENT_3D ( 'NONE', #274, #739, #282 ) ;
#595 = LINE ( 'NONE', #101, #903 ) ;
#596 = DIRECTION ( 'NONE',  ( -1.000000000000000000, 0.000000000000000000, 3.614007241618350250E-16 ) ) ;
#597 = AXIS2_PLACEMENT_3D ( 'NONE', #442, #14, #1060 ) ;
#598 = EDGE_LOOP ( 'NONE', ( #1071, #148, #259, #306 ) ) ;
#599 =( NAMED_UNIT ( * ) PLANE_ANGLE_UNIT ( ) SI_UNIT ( $, .RADIAN. ) );
#600 = LINE ( 'NONE', #784, #290 ) ;
#601 =( LENGTH_UNIT ( ) NAMED_UNIT ( * ) SI_UNIT ( .MILLI., .METRE. ) );
#602 = ADVANCED_FACE ( 'NONE', ( #337 ), #1068, .F. ) ;
#603 = LINE ( 'NONE', #184, #454 ) ;
#604 = ORIENTED_EDGE ( 'NONE', *, *, #834, .F. ) ;
#605 = FACE_OUTER_BOUND ( 'NONE', #669, .T. ) ;
#606 =( LENGTH_UNIT ( ) NAMED_UNIT ( * ) SI_UNIT ( .MILLI., .METRE. ) );
#607 = EDGE_CURVE ( 'NONE', #326, #666, #1089, .T. ) ;
#608 = ORIENTED_EDGE ( 'NONE', *, *, #987, .F. ) ;
#609 = STYLED_ITEM ( 'NONE', ( #188 ), #574 ) ;
#610 = DIRECTION ( 'NONE',  ( 0.000000000000000000, 0.000000000000000000, -1.000000000000000000 ) ) ;
#611 = VECTOR ( 'NONE', #1128, 1000.000000000000000 ) ;
#612 = CARTESIAN_POINT ( 'NONE',  ( -0.2500000000000000000, 0.5500000000000000444, 0.2999999999999999889 ) ) ;
#613 = ORIENTED_EDGE ( 'NONE', *, *, #1124, .F. ) ;
#614 = STYLED_ITEM ( 'NONE', ( #457 ), #19 ) ;
#615 = FILL_AREA_STYLE ('',( #261 ) ) ;
#616 = PRESENTATION_STYLE_ASSIGNMENT (( #6 ) ) ;
#617 = CARTESIAN_POINT ( 'NONE',  ( 0.000000000000000000, 0.000000000000000000, 0.000000000000000000 ) ) ;
#618 = LINE ( 'NONE', #8, #639 ) ;
#619 =( NAMED_UNIT ( * ) PLANE_ANGLE_UNIT ( ) SI_UNIT ( $, .RADIAN. ) );
#620 = ORIENTED_EDGE ( 'NONE', *, *, #772, .T. ) ;
#621 = CARTESIAN_POINT ( 'NONE',  ( 0.2000000000000000111, 0.02000000000000000042, -0.2500000000000000000 ) ) ;
#622 = EDGE_CURVE ( 'NONE', #429, #528, #383, .T. ) ;
#623 =( NAMED_UNIT ( * ) PLANE_ANGLE_UNIT ( ) SI_UNIT ( $, .RADIAN. ) );
#624 =( LENGTH_UNIT ( ) NAMED_UNIT ( * ) SI_UNIT ( .MILLI., .METRE. ) );
#625 = FILL_AREA_STYLE ('',( #202 ) ) ;
#626 = FILL_AREA_STYLE_COLOUR ( '', #1004 ) ;
#627 = ORIENTED_EDGE ( 'NONE', *, *, #1019, .T. ) ;
#628 = SURFACE_SIDE_STYLE ('',( #54 ) ) ;
#629 = UNCERTAINTY_MEASURE_WITH_UNIT (LENGTH_MEASURE( 1.000000000000000082E-05 ), #841, 'distance_accuracy_value', 'NONE');
#630 = COLOUR_RGB ( '',0.000000000000000000, 0.000000000000000000, 0.000000000000000000 ) ;
#631 =( NAMED_UNIT ( * ) PLANE_ANGLE_UNIT ( ) SI_UNIT ( $, .RADIAN. ) );
#632 = CARTESIAN_POINT ( 'NONE',  ( 3.252606517456510221E-17, 0.5400000000000000355, 0.2999999999999999889 ) ) ;
#633 = VECTOR ( 'NONE', #363, 1000.000000000000000 ) ;
#634 = VECTOR ( 'NONE', #1021, 1000.000000000000000 ) ;
#635 = FACE_OUTER_BOUND ( 'NONE', #52, .T. ) ;
#636 = MECHANICAL_DESIGN_GEOMETRIC_PRESENTATION_REPRESENTATION (  '', ( #732 ), #294 ) ;
#637 = CARTESIAN_POINT ( 'NONE',  ( -0.2500000000000000000, 0.5400000000000000355, -0.2999999999999999889 ) ) ;
#638 = PRESENTATION_LAYER_ASSIGNMENT (  '', '', ( #4 ) ) ;
#639 = VECTOR ( 'NONE', #894, 1000.000000000000000 ) ;
#640 = LINE ( 'NONE', #459, #633 ) ;
#641 = EDGE_CURVE ( 'NONE', #385, #16, #272, .T. ) ;
#642 = DIRECTION ( 'NONE',  ( 0.000000000000000000, -1.000000000000000000, 0.000000000000000000 ) ) ;
#643 = ORIENTED_EDGE ( 'NONE', *, *, #772, .F. ) ;
#644 = PRESENTATION_STYLE_ASSIGNMENT (( #28 ) ) ;
#645 = CARTESIAN_POINT ( 'NONE',  ( 0.2000000000000000111, 0.02000000000000000042, 0.2500000000000000000 ) ) ;
#646 = ORIENTED_EDGE ( 'NONE', *, *, #258, .T. ) ;
#647 = STYLED_ITEM ( 'NONE', ( #1035 ), #317 ) ;
#648 = SURFACE_STYLE_FILL_AREA ( #625 ) ;
#649 = SURFACE_SIDE_STYLE ('',( #1076 ) ) ;
#650 = PRESENTATION_LAYER_ASSIGNMENT (  '', '', ( #409 ) ) ;
#651 = STYLED_ITEM ( 'NONE', ( #785 ), #924 ) ;
#652 =( NAMED_UNIT ( * ) PLANE_ANGLE_UNIT ( ) SI_UNIT ( $, .RADIAN. ) );
#653 = AXIS2_PLACEMENT_3D ( 'NONE', #1127, #327, #17 ) ;
#654 = ORIENTED_EDGE ( 'NONE', *, *, #530, .F. ) ;
#655 = STYLED_ITEM ( 'NONE', ( #59 ), #1102 ) ;
#656 = EDGE_CURVE ( 'NONE', #503, #666, #738, .T. ) ;
#657 = PLANE ( 'NONE',  #394 ) ;
#658 = UNCERTAINTY_MEASURE_WITH_UNIT (LENGTH_MEASURE( 1.000000000000000082E-05 ), #922, 'distance_accuracy_value', 'NONE');
#659 = AXIS2_PLACEMENT_3D ( 'NONE', #240, #868, #421 ) ;
#660 = CARTESIAN_POINT ( 'NONE',  ( -0.5000000000000000000, 0.02000000000000000042, 0.2999999999999999889 ) ) ;
#661 = CARTESIAN_POINT ( 'NONE',  ( -0.5000000000000000000, 0.02000000000000000042, 1.807003620809174878E-16 ) ) ;
#662 = CARTESIAN_POINT ( 'NONE',  ( 0.2000000000000000111, 0.02000000000000000042, 0.2500000000000000000 ) ) ;
#663 = ORIENTED_EDGE ( 'NONE', *, *, #798, .F. ) ;
#664 = CARTESIAN_POINT ( 'NONE',  ( 0.2000000000000000111, 0.000000000000000000, 0.2500000000000000000 ) ) ;
#665 = CARTESIAN_POINT ( 'NONE',  ( -0.2500000000000000000, 0.5500000000000000444, -0.2999999999999999889 ) ) ;
#666 = VERTEX_POINT ( 'NONE', #824 ) ;
#667 = SURFACE_STYLE_USAGE ( .BOTH. , #849 ) ;
#668 =( NAMED_UNIT ( * ) PLANE_ANGLE_UNIT ( ) SI_UNIT ( $, .RADIAN. ) );
#669 = EDGE_LOOP ( 'NONE', ( #1013, #956, #453, #83 ) ) ;
#670 = PRESENTATION_LAYER_ASSIGNMENT (  '', '', ( #651 ) ) ;
#671 = LINE ( 'NONE', #1030, #260 ) ;
#672 = MANIFOLD_SOLID_BREP ( 'NONE', #414 ) ;
#673 =( GEOMETRIC_REPRESENTATION_CONTEXT ( 3 ) GLOBAL_UNCERTAINTY_ASSIGNED_CONTEXT ( ( #1095 ) ) GLOBAL_UNIT_ASSIGNED_CONTEXT ( ( #529, #271, #724 ) ) REPRESENTATION_CONTEXT ( 'NONE', 'WORKASPACE' ) );
#674 = STYLED_ITEM ( 'NONE', ( #576 ), #87 ) ;
#675 =( NAMED_UNIT ( * ) SI_UNIT ( $, .STERADIAN. ) SOLID_ANGLE_UNIT ( ) );
#676 = PLANE ( 'NONE',  #481 ) ;
#677 = APPLICATION_PROTOCOL_DEFINITION ( 'draft international standard', 'automotive_design', 1998, #508 ) ;
#678 = DIRECTION ( 'NONE',  ( -1.000000000000000000, 0.000000000000000000, 2.168404344971005170E-16 ) ) ;
#679 = ORIENTED_EDGE ( 'NONE', *, *, #350, .T. ) ;
#680 = LINE ( 'NONE', #1093, #464 ) ;
#681 = FILL_AREA_STYLE ('',( #756 ) ) ;
#682 = PLANE ( 'NONE',  #497 ) ;
#683 = ORIENTED_EDGE ( 'NONE', *, *, #656, .F. ) ;
#684 = SURFACE_STYLE_USAGE ( .BOTH. , #887 ) ;
#685 = DIRECTION ( 'NONE',  ( -0.000000000000000000, 1.000000000000000000, 0.000000000000000000 ) ) ;
#686 = MECHANICAL_DESIGN_GEOMETRIC_PRESENTATION_REPRESENTATION (  '', ( #408 ), #778 ) ;
#687 = ORIENTED_EDGE ( 'NONE', *, *, #308, .F. ) ;
#688 = PRESENTATION_LAYER_ASSIGNMENT (  '', '', ( #57 ) ) ;
#689 = EDGE_CURVE ( 'NONE', #993, #503, #811, .T. ) ;
#690 = PRESENTATION_LAYER_ASSIGNMENT (  '', '', ( #1065 ) ) ;
#691 = AXIS2_PLACEMENT_3D ( 'NONE', #867, #310, #873 ) ;
#692 = LINE ( 'NONE', #29, #134 ) ;
#693 =( GEOMETRIC_REPRESENTATION_CONTEXT ( 3 ) GLOBAL_UNCERTAINTY_ASSIGNED_CONTEXT ( ( #445 ) ) GLOBAL_UNIT_ASSIGNED_CONTEXT ( ( #116, #141, #927 ) ) REPRESENTATION_CONTEXT ( 'NONE', 'WORKASPACE' ) );
#694 =( LENGTH_UNIT ( ) NAMED_UNIT ( * ) SI_UNIT ( .MILLI., .METRE. ) );
#695 = SURFACE_STYLE_USAGE ( .BOTH. , #890 ) ;
#696 = ORIENTED_EDGE ( 'NONE', *, *, #181, .F. ) ;
#697 = DIRECTION ( 'NONE',  ( -2.168404344971010101E-16, 0.000000000000000000, 1.000000000000000000 ) ) ;
#698 = ADVANCED_FACE ( 'NONE', ( #635 ), #460, .F. ) ;
#699 = FACE_OUTER_BOUND ( 'NONE', #361, .T. ) ;
#700 = CARTESIAN_POINT ( 'NONE',  ( -0.2500000000000000000, 0.5500000000000000444, 0.000000000000000000 ) ) ;
#701 = ORIENTED_EDGE ( 'NONE', *, *, #450, .F. ) ;
#702 = FILL_AREA_STYLE ('',( #77 ) ) ;
#703 = LINE ( 'NONE', #12, #227 ) ;
#704 =( NAMED_UNIT ( * ) PLANE_ANGLE_UNIT ( ) SI_UNIT ( $, .RADIAN. ) );
#705 = DIRECTION ( 'NONE',  ( 1.000000000000000000, 0.000000000000000000, -1.084202172485503818E-16 ) ) ;
#706 = FILL_AREA_STYLE ('',( #961 ) ) ;
#707 = VERTEX_POINT ( 'NONE', #836 ) ;
#708 = CARTESIAN_POINT ( 'NONE',  ( -0.5000000000000000000, 0.02000000000000000042, -0.2500000000000000000 ) ) ;
#709 = VECTOR ( 'NONE', #263, 1000.000000000000000 ) ;
#710 = PRESENTATION_LAYER_ASSIGNMENT (  '', '', ( #408 ) ) ;
#711 = MECHANICAL_DESIGN_GEOMETRIC_PRESENTATION_REPRESENTATION (  '', ( #592 ), #22 ) ;
#712 = PRESENTATION_STYLE_ASSIGNMENT (( #684 ) ) ;
#713 = COLOUR_RGB ( '',0.000000000000000000, 0.000000000000000000, 0.000000000000000000 ) ;
#714 = STYLED_ITEM ( 'NONE', ( #155 ), #1038 ) ;
#715 = SURFACE_STYLE_USAGE ( .BOTH. , #20 ) ;
#716 = EDGE_CURVE ( 'NONE', #463, #186, #469, .T. ) ;
#717 = ORIENTED_EDGE ( 'NONE', *, *, #400, .T. ) ;
#718 = STYLED_ITEM ( 'NONE', ( #553 ), #32 ) ;
#719 = DIRECTION ( 'NONE',  ( -3.614007241618350250E-16, 0.000000000000000000, -1.000000000000000000 ) ) ;
#720 = DIRECTION ( 'NONE',  ( 1.000000000000000000, 0.000000000000000000, 0.000000000000000000 ) ) ;
#721 = DIRECTION ( 'NONE',  ( 1.000000000000000000, 0.000000000000000000, -1.084202172485503818E-16 ) ) ;
#722 = EDGE_LOOP ( 'NONE', ( #109, #613, #982, #1051 ) ) ;
#723 = ADVANCED_FACE ( 'NONE', ( #152 ), #676, .F. ) ;
#724 =( NAMED_UNIT ( * ) SI_UNIT ( $, .STERADIAN. ) SOLID_ANGLE_UNIT ( ) );
#725 = SURFACE_STYLE_FILL_AREA ( #730 ) ;
#726 =( NAMED_UNIT ( * ) SI_UNIT ( $, .STERADIAN. ) SOLID_ANGLE_UNIT ( ) );
#727 = FILL_AREA_STYLE ('',( #370 ) ) ;
#728 = UNCERTAINTY_MEASURE_WITH_UNIT (LENGTH_MEASURE( 1.000000000000000082E-05 ), #606, 'distance_accuracy_value', 'NONE');
#729 = AXIS2_PLACEMENT_3D ( 'NONE', #151, #767, #1121 ) ;
#730 = FILL_AREA_STYLE ('',( #369 ) ) ;
#731 =( NAMED_UNIT ( * ) PLANE_ANGLE_UNIT ( ) SI_UNIT ( $, .RADIAN. ) );
#732 = STYLED_ITEM ( 'NONE', ( #322 ), #965 ) ;
#733 = PRESENTATION_LAYER_ASSIGNMENT (  '', '', ( #718 ) ) ;
#734 = EDGE_LOOP ( 'NONE', ( #817, #604, #974, #861, #124, #555 ) ) ;
#735 = PRESENTATION_STYLE_ASSIGNMENT (( #37 ) ) ;
#736 = FACE_OUTER_BOUND ( 'NONE', #734, .T. ) ;
#737 =( LENGTH_UNIT ( ) NAMED_UNIT ( * ) SI_UNIT ( .MILLI., .METRE. ) );
#738 = LINE ( 'NONE', #742, #449 ) ;
#739 = DIRECTION ( 'NONE',  ( -1.000000000000000000, 0.000000000000000000, 0.000000000000000000 ) ) ;
#740 = ORIENTED_EDGE ( 'NONE', *, *, #258, .F. ) ;
#741 =( NAMED_UNIT ( * ) PLANE_ANGLE_UNIT ( ) SI_UNIT ( $, .RADIAN. ) );
#742 = CARTESIAN_POINT ( 'NONE',  ( -0.5000000000000000000, 0.5400000000000000355, -0.2999999999999999889 ) ) ;
#743 = EDGE_CURVE ( 'NONE', #509, #583, #500, .T. ) ;
#744 = ORIENTED_EDGE ( 'NONE', *, *, #49, .T. ) ;
#745 = CARTESIAN_POINT ( 'NONE',  ( -0.5000000000000000000, 0.5500000000000000444, -0.2999999999999999889 ) ) ;
#746 = STYLED_ITEM ( 'NONE', ( #712 ), #417 ) ;
#747 = DIRECTION ( 'NONE',  ( 2.168404344971005170E-16, 0.000000000000000000, 1.000000000000000000 ) ) ;
#748 = VECTOR ( 'NONE', #455, 1000.000000000000000 ) ;
#749 =( NAMED_UNIT ( * ) SI_UNIT ( $, .STERADIAN. ) SOLID_ANGLE_UNIT ( ) );
#750 = ORIENTED_EDGE ( 'NONE', *, *, #1059, .T. ) ;
#751 = VECTOR ( 'NONE', #245, 1000.000000000000000 ) ;
#752 =( LENGTH_UNIT ( ) NAMED_UNIT ( * ) SI_UNIT ( .MILLI., .METRE. ) );
#753 = CARTESIAN_POINT ( 'NONE',  ( 0.5000000000000000000, 0.5500000000000000444, 0.000000000000000000 ) ) ;
#754 = PRESENTATION_STYLE_ASSIGNMENT (( #763 ) ) ;
#755 = ORIENTED_EDGE ( 'NONE', *, *, #433, .F. ) ;
#756 = FILL_AREA_STYLE_COLOUR ( '', #479 ) ;
#757 =( NAMED_UNIT ( * ) PLANE_ANGLE_UNIT ( ) SI_UNIT ( $, .RADIAN. ) );
#758 = DIRECTION ( 'NONE',  ( 0.000000000000000000, -1.000000000000000000, 0.000000000000000000 ) ) ;
#759 = ORIENTED_EDGE ( 'NONE', *, *, #466, .T. ) ;
#760 = EDGE_CURVE ( 'NONE', #9, #438, #230, .T. ) ;
#761 =( NAMED_UNIT ( * ) PLANE_ANGLE_UNIT ( ) SI_UNIT ( $, .RADIAN. ) );
#762 = SURFACE_STYLE_FILL_AREA ( #492 ) ;
#763 = SURFACE_STYLE_USAGE ( .BOTH. , #1129 ) ;
#764 = ORIENTED_EDGE ( 'NONE', *, *, #308, .T. ) ;
#765 = AXIS2_PLACEMENT_3D ( 'NONE', #617, #420, #183 ) ;
#766 = AXIS2_PLACEMENT_3D ( 'NONE', #303, #926, #719 ) ;
#767 = DIRECTION ( 'NONE',  ( 0.000000000000000000, 0.000000000000000000, 1.000000000000000000 ) ) ;
#768 = PRESENTATION_STYLE_ASSIGNMENT (( #939 ) ) ;
#769 = CARTESIAN_POINT ( 'NONE',  ( 0.5000000000000000000, 0.02000000000000000042, -0.2999999999999999889 ) ) ;
#770 = ORIENTED_EDGE ( 'NONE', *, *, #400, .F. ) ;
#771 = CARTESIAN_POINT ( 'NONE',  ( -0.2500000000000000000, 0.5400000000000000355, -0.2999999999999999889 ) ) ;
#772 = EDGE_CURVE ( 'NONE', #92, #793, #66, .T. ) ;
#773 = ORIENTED_EDGE ( 'NONE', *, *, #11, .T. ) ;
#774 = LINE ( 'NONE', #354, #1118 ) ;
#775 =( NAMED_UNIT ( * ) SI_UNIT ( $, .STERADIAN. ) SOLID_ANGLE_UNIT ( ) );
#776 = FILL_AREA_STYLE_COLOUR ( '', #110 ) ;
#777 = FILL_AREA_STYLE_COLOUR ( '', #1048 ) ;
#778 =( GEOMETRIC_REPRESENTATION_CONTEXT ( 3 ) GLOBAL_UNCERTAINTY_ASSIGNED_CONTEXT ( ( #549 ) ) GLOBAL_UNIT_ASSIGNED_CONTEXT ( ( #35, #1075, #401 ) ) REPRESENTATION_CONTEXT ( 'NONE', 'WORKASPACE' ) );
#779 = ORIENTED_EDGE ( 'NONE', *, *, #382, .F. ) ;
#780 = EDGE_CURVE ( 'NONE', #1069, #186, #302, .T. ) ;
#781 = DIRECTION ( 'NONE',  ( -1.000000000000000000, 0.000000000000000000, 2.168404344971010101E-16 ) ) ;
#782 = VECTOR ( 'NONE', #820, 1000.000000000000000 ) ;
#783 =( GEOMETRIC_REPRESENTATION_CONTEXT ( 3 ) GLOBAL_UNCERTAINTY_ASSIGNED_CONTEXT ( ( #923 ) ) GLOBAL_UNIT_ASSIGNED_CONTEXT ( ( #1045, #599, #870 ) ) REPRESENTATION_CONTEXT ( 'NONE', 'WORKASPACE' ) );
#784 = CARTESIAN_POINT ( 'NONE',  ( -3.252606517456510221E-17, 0.5400000000000000355, -0.2999999999999999889 ) ) ;
#785 = PRESENTATION_STYLE_ASSIGNMENT (( #888 ) ) ;
#786 = CARTESIAN_POINT ( 'NONE',  ( 3.252606517456510221E-17, 0.02000000000000000042, 0.2999999999999999889 ) ) ;
#787 = VECTOR ( 'NONE', #428, 1000.000000000000000 ) ;
#788 = EDGE_LOOP ( 'NONE', ( #717, #399, #480, #403 ) ) ;
#789 = PLANE ( 'NONE',  #1081 ) ;
#790 = CARTESIAN_POINT ( 'NONE',  ( -0.2500000000000000000, 0.5500000000000000444, -0.2999999999999999889 ) ) ;
#791 = DIRECTION ( 'NONE',  ( -2.168404344971010101E-16, 0.000000000000000000, 1.000000000000000000 ) ) ;
#792 = SURFACE_STYLE_USAGE ( .BOTH. , #1135 ) ;
#793 = VERTEX_POINT ( 'NONE', #582 ) ;
#794 = SURFACE_STYLE_USAGE ( .BOTH. , #3 ) ;
#795 = UNCERTAINTY_MEASURE_WITH_UNIT (LENGTH_MEASURE( 1.000000000000000082E-05 ), #694, 'distance_accuracy_value', 'NONE');
#796 = LINE ( 'NONE', #43, #1064 ) ;
#797 = SURFACE_STYLE_FILL_AREA ( #877 ) ;
#798 = EDGE_CURVE ( 'NONE', #418, #1119, #1031, .T. ) ;
#799 = ORIENTED_EDGE ( 'NONE', *, *, #622, .F. ) ;
#800 = PLANE ( 'NONE',  #766 ) ;
#801 = VECTOR ( 'NONE', #970, 1000.000000000000000 ) ;
#802 = COLOUR_RGB ( '',0.2509803921568627416, 0.2509803921568627416, 0.2509803921568627416 ) ;
#803 = LINE ( 'NONE', #126, #782 ) ;
#804 = MECHANICAL_DESIGN_GEOMETRIC_PRESENTATION_REPRESENTATION (  '', ( #714 ), #783 ) ;
#805 = CARTESIAN_POINT ( 'NONE',  ( 0.5000000000000000000, 0.02000000000000000042, 0.000000000000000000 ) ) ;
#806 =( LENGTH_UNIT ( ) NAMED_UNIT ( * ) SI_UNIT ( .MILLI., .METRE. ) );
#807 = ORIENTED_EDGE ( 'NONE', *, *, #122, .T. ) ;
#808 = AXIS2_PLACEMENT_3D ( 'NONE', #289, #547, #1100 ) ;
#809 = DIRECTION ( 'NONE',  ( 0.000000000000000000, 0.000000000000000000, -1.000000000000000000 ) ) ;
#810 =( NAMED_UNIT ( * ) SI_UNIT ( $, .STERADIAN. ) SOLID_ANGLE_UNIT ( ) );
#811 = LINE ( 'NONE', #36, #275 ) ;
#812 = FILL_AREA_STYLE ('',( #908 ) ) ;
#813 =( NAMED_UNIT ( * ) PLANE_ANGLE_UNIT ( ) SI_UNIT ( $, .RADIAN. ) );
#814 = CARTESIAN_POINT ( 'NONE',  ( -0.2000000000000000111, 0.000000000000000000, 0.2500000000000000000 ) ) ;
#815 = DIRECTION ( 'NONE',  ( -1.000000000000000000, 0.000000000000000000, 1.084202172485503818E-16 ) ) ;
#816 = FILL_AREA_STYLE ('',( #379 ) ) ;
#817 = ORIENTED_EDGE ( 'NONE', *, *, #165, .T. ) ;
#818 = UNCERTAINTY_MEASURE_WITH_UNIT (LENGTH_MEASURE( 1.000000000000000082E-05 ), #551, 'distance_accuracy_value', 'NONE');
#819 = VECTOR ( 'NONE', #396, 1000.000000000000000 ) ;
#820 = DIRECTION ( 'NONE',  ( 0.000000000000000000, -1.000000000000000000, 0.000000000000000000 ) ) ;
#821 = PRESENTATION_LAYER_ASSIGNMENT (  '', '', ( #517 ) ) ;
#822 = FILL_AREA_STYLE ('',( #973 ) ) ;
#823 = STYLED_ITEM ( 'NONE', ( #118 ), #941 ) ;
#824 = CARTESIAN_POINT ( 'NONE',  ( -0.5000000000000000000, 0.02000000000000000042, -0.2999999999999999889 ) ) ;
#825 = AXIS2_PLACEMENT_3D ( 'NONE', #504, #591, #781 ) ;
#826 = FACE_OUTER_BOUND ( 'NONE', #523, .T. ) ;
#827 = COLOUR_RGB ( '',0.000000000000000000, 0.000000000000000000, 0.000000000000000000 ) ;
#828 = ORIENTED_EDGE ( 'NONE', *, *, #622, .T. ) ;
#829 = CARTESIAN_POINT ( 'NONE',  ( 0.5000000000000000000, 0.5500000000000000444, 0.2999999999999999889 ) ) ;
#830 = CARTESIAN_POINT ( 'NONE',  ( -0.5000000000000000000, 0.000000000000000000, -0.2500000000000000000 ) ) ;
#831 = SURFACE_STYLE_FILL_AREA ( #812 ) ;
#832 = EDGE_LOOP ( 'NONE', ( #828, #488, #845, #627 ) ) ;
#833 = UNCERTAINTY_MEASURE_WITH_UNIT (LENGTH_MEASURE( 1.000000000000000082E-05 ), #1074, 'distance_accuracy_value', 'NONE');
#834 = EDGE_CURVE ( 'NONE', #463, #346, #236, .T. ) ;
#835 = PRESENTATION_STYLE_ASSIGNMENT (( #996 ) ) ;
#836 = CARTESIAN_POINT ( 'NONE',  ( -0.2000000000000000111, 0.02000000000000000042, -0.2500000000000000000 ) ) ;
#837 = PRESENTATION_STYLE_ASSIGNMENT (( #902 ) ) ;
#838 = EDGE_LOOP ( 'NONE', ( #154, #654, #962, #880 ) ) ;
#839 =( GEOMETRIC_REPRESENTATION_CONTEXT ( 3 ) GLOBAL_UNCERTAINTY_ASSIGNED_CONTEXT ( ( #476 ) ) GLOBAL_UNIT_ASSIGNED_CONTEXT ( ( #545, #287, #810 ) ) REPRESENTATION_CONTEXT ( 'NONE', 'WORKASPACE' ) );
#840 = CARTESIAN_POINT ( 'NONE',  ( 0.2000000000000000111, 0.02000000000000000042, 0.2500000000000000000 ) ) ;
#841 =( LENGTH_UNIT ( ) NAMED_UNIT ( * ) SI_UNIT ( .MILLI., .METRE. ) );
#842 = CARTESIAN_POINT ( 'NONE',  ( -0.2000000000000000111, 0.02000000000000000042, 0.2500000000000000000 ) ) ;
#843 = AXIS2_PLACEMENT_3D ( 'NONE', #364, #720, #85 ) ;
#844 = CARTESIAN_POINT ( 'NONE',  ( 0.5000000000000000000, 0.02000000000000000042, -0.2500000000000000000 ) ) ;
#845 = ORIENTED_EDGE ( 'NONE', *, *, #196, .F. ) ;
#846 = AXIS2_PLACEMENT_3D ( 'NONE', #489, #64, #406 ) ;
#847 = COLOUR_RGB ( '',0.000000000000000000, 0.000000000000000000, 0.000000000000000000 ) ;
#848 = DIRECTION ( 'NONE',  ( -1.084202172485503818E-16, 0.000000000000000000, -1.000000000000000000 ) ) ;
#849 = SURFACE_SIDE_STYLE ('',( #762 ) ) ;
#850 = PRODUCT_CONTEXT ( 'NONE', #508, 'mechanical' ) ;
#851 = CARTESIAN_POINT ( 'NONE',  ( -0.2000000000000000111, 0.02000000000000000042, 0.2500000000000000000 ) ) ;
#852 = ORIENTED_EDGE ( 'NONE', *, *, #834, .T. ) ;
#853 = ADVANCED_FACE ( 'NONE', ( #146 ), #682, .F. ) ;
#854 =( NAMED_UNIT ( * ) SI_UNIT ( $, .STERADIAN. ) SOLID_ANGLE_UNIT ( ) );
#855 = FILL_AREA_STYLE ('',( #944 ) ) ;
#856 = ORIENTED_EDGE ( 'NONE', *, *, #350, .F. ) ;
#857 = EDGE_CURVE ( 'NONE', #1069, #270, #13, .T. ) ;
#858 = PLANE ( 'NONE',  #729 ) ;
#859 = MECHANICAL_DESIGN_GEOMETRIC_PRESENTATION_REPRESENTATION (  '', ( #356 ), #211 ) ;
#860 =( GEOMETRIC_REPRESENTATION_CONTEXT ( 3 ) GLOBAL_UNCERTAINTY_ASSIGNED_CONTEXT ( ( #833 ) ) GLOBAL_UNIT_ASSIGNED_CONTEXT ( ( #1074, #631, #985 ) ) REPRESENTATION_CONTEXT ( 'NONE', 'WORKASPACE' ) );
#861 = ORIENTED_EDGE ( 'NONE', *, *, #150, .T. ) ;
#862 = VECTOR ( 'NONE', #1122, 1000.000000000000000 ) ;
#863 = PRESENTATION_STYLE_ASSIGNMENT (( #423 ) ) ;
#864 = AXIS2_PLACEMENT_3D ( 'NONE', #632, #456, #815 ) ;
#865 = COLOUR_RGB ( '',0.000000000000000000, 0.000000000000000000, 0.000000000000000000 ) ;
#866 = SURFACE_SIDE_STYLE ('',( #1104 ) ) ;
#867 = CARTESIAN_POINT ( 'NONE',  ( 0.000000000000000000, 0.000000000000000000, 0.000000000000000000 ) ) ;
#868 = DIRECTION ( 'NONE',  ( -1.000000000000000000, 0.000000000000000000, 0.000000000000000000 ) ) ;
#869 = ORIENTED_EDGE ( 'NONE', *, *, #382, .T. ) ;
#870 =( NAMED_UNIT ( * ) SI_UNIT ( $, .STERADIAN. ) SOLID_ANGLE_UNIT ( ) );
#871 =( NAMED_UNIT ( * ) SI_UNIT ( $, .STERADIAN. ) SOLID_ANGLE_UNIT ( ) );
#872 =( NAMED_UNIT ( * ) SI_UNIT ( $, .STERADIAN. ) SOLID_ANGLE_UNIT ( ) );
#873 = DIRECTION ( 'NONE',  ( 1.000000000000000000, 0.000000000000000000, 0.000000000000000000 ) ) ;
#874 = LINE ( 'NONE', #351, #195 ) ;
#875 = ORIENTED_EDGE ( 'NONE', *, *, #404, .T. ) ;
#876 =( NAMED_UNIT ( * ) PLANE_ANGLE_UNIT ( ) SI_UNIT ( $, .RADIAN. ) );
#877 = FILL_AREA_STYLE ('',( #776 ) ) ;
#878 = DIRECTION ( 'NONE',  ( 0.000000000000000000, 0.000000000000000000, -1.000000000000000000 ) ) ;
#879 = COLOUR_RGB ( '',0.000000000000000000, 0.000000000000000000, 0.000000000000000000 ) ;
#880 = ORIENTED_EDGE ( 'NONE', *, *, #1124, .T. ) ;
#881 =( LENGTH_UNIT ( ) NAMED_UNIT ( * ) SI_UNIT ( .MILLI., .METRE. ) );
#882 = VECTOR ( 'NONE', #352, 1000.000000000000000 ) ;
#883 = LINE ( 'NONE', #86, #937 ) ;
#884 = PRESENTATION_STYLE_ASSIGNMENT (( #179 ) ) ;
#885 = ORIENTED_EDGE ( 'NONE', *, *, #975, .F. ) ;
#886 = EDGE_CURVE ( 'NONE', #444, #1113, #526, .T. ) ;
#887 = SURFACE_SIDE_STYLE ('',( #328 ) ) ;
#888 = SURFACE_STYLE_USAGE ( .BOTH. , #506 ) ;
#889 = FILL_AREA_STYLE_COLOUR ( '', #847 ) ;
#890 = SURFACE_SIDE_STYLE ('',( #185 ) ) ;
#891 = ORIENTED_EDGE ( 'NONE', *, *, #607, .F. ) ;
#892 =( LENGTH_UNIT ( ) NAMED_UNIT ( * ) SI_UNIT ( .MILLI., .METRE. ) );
#893 = EDGE_CURVE ( 'NONE', #509, #444, #349, .T. ) ;
#894 = DIRECTION ( 'NONE',  ( 0.000000000000000000, 0.000000000000000000, -1.000000000000000000 ) ) ;
#895 = ORIENTED_EDGE ( 'NONE', *, *, #1055, .F. ) ;
#896 = VECTOR ( 'NONE', #997, 1000.000000000000000 ) ;
#897 =( GEOMETRIC_REPRESENTATION_CONTEXT ( 3 ) GLOBAL_UNCERTAINTY_ASSIGNED_CONTEXT ( ( #99 ) ) GLOBAL_UNIT_ASSIGNED_CONTEXT ( ( #601, #704, #872 ) ) REPRESENTATION_CONTEXT ( 'NONE', 'WORKASPACE' ) );
#898 = PLANE ( 'NONE',  #864 ) ;
#899 = PRESENTATION_LAYER_ASSIGNMENT (  '', '', ( #655 ) ) ;
#900 = SURFACE_SIDE_STYLE ('',( #648 ) ) ;
#901 = LINE ( 'NONE', #345, #1117 ) ;
#902 = SURFACE_STYLE_USAGE ( .BOTH. , #384 ) ;
#903 = VECTOR ( 'NONE', #507, 1000.000000000000000 ) ;
#904 = CARTESIAN_POINT ( 'NONE',  ( -0.5000000000000000000, 0.02000000000000000042, 0.2500000000000000000 ) ) ;
#905 = UNCERTAINTY_MEASURE_WITH_UNIT (LENGTH_MEASURE( 1.000000000000000082E-05 ), #881, 'distance_accuracy_value', 'NONE');
#906 = FACE_OUTER_BOUND ( 'NONE', #838, .T. ) ;
#907 = EDGE_CURVE ( 'NONE', #471, #1062, #692, .T. ) ;
#908 = FILL_AREA_STYLE_COLOUR ( '', #865 ) ;
#909 = ORIENTED_EDGE ( 'NONE', *, *, #780, .F. ) ;
#910 = LINE ( 'NONE', #814, #748 ) ;
#911 = COLOUR_RGB ( '',0.000000000000000000, 0.000000000000000000, 0.000000000000000000 ) ;
#912 = CARTESIAN_POINT ( 'NONE',  ( -0.2500000000000000000, 0.5500000000000000444, 0.2999999999999999889 ) ) ;
#913 = SURFACE_SIDE_STYLE ('',( #557 ) ) ;
#914 = COLOUR_RGB ( '',0.000000000000000000, 0.000000000000000000, 0.000000000000000000 ) ;
#915 = PLANE ( 'NONE',  #983 ) ;
#916 = COLOUR_RGB ( '',0.000000000000000000, 0.000000000000000000, 0.000000000000000000 ) ;
#917 = CARTESIAN_POINT ( 'NONE',  ( -0.5000000000000000000, 0.5400000000000000355, 0.2999999999999999889 ) ) ;
#918 = VECTOR ( 'NONE', #678, 1000.000000000000000 ) ;
#919 = ORIENTED_EDGE ( 'NONE', *, *, #1012, .F. ) ;
#920 = EDGE_CURVE ( 'NONE', #270, #463, #96, .T. ) ;
#921 = CARTESIAN_POINT ( 'NONE',  ( -0.2500000000000000000, 0.5400000000000000355, -0.2999999999999999889 ) ) ;
#922 =( LENGTH_UNIT ( ) NAMED_UNIT ( * ) SI_UNIT ( .MILLI., .METRE. ) );
#923 = UNCERTAINTY_MEASURE_WITH_UNIT (LENGTH_MEASURE( 1.000000000000000082E-05 ), #1045, 'distance_accuracy_value', 'NONE');
#924 = ADVANCED_FACE ( 'NONE', ( #1054 ), #964, .F. ) ;
#925 = SURFACE_STYLE_USAGE ( .BOTH. , #559 ) ;
#926 = DIRECTION ( 'NONE',  ( 1.000000000000000000, 0.000000000000000000, -3.614007241618350250E-16 ) ) ;
#927 =( NAMED_UNIT ( * ) SI_UNIT ( $, .STERADIAN. ) SOLID_ANGLE_UNIT ( ) );
#928 = EDGE_LOOP ( 'NONE', ( #1109, #1101, #856, #338 ) ) ;
#929 = PLANE ( 'NONE',  #424 ) ;
#930 = CARTESIAN_POINT ( 'NONE',  ( -0.5000000000000000000, 0.000000000000000000, 0.2500000000000000000 ) ) ;
#931 = ADVANCED_FACE ( 'NONE', ( #169 ), #264, .T. ) ;
#932 = AXIS2_PLACEMENT_3D ( 'NONE', #999, #209, #136 ) ;
#933 =( NAMED_UNIT ( * ) PLANE_ANGLE_UNIT ( ) SI_UNIT ( $, .RADIAN. ) );
#934 = COLOUR_RGB ( '',0.000000000000000000, 0.000000000000000000, 0.000000000000000000 ) ;
#935 = ORIENTED_EDGE ( 'NONE', *, *, #716, .F. ) ;
#936 = MECHANICAL_DESIGN_GEOMETRIC_PRESENTATION_REPRESENTATION (  '', ( #972 ), #693 ) ;
#937 = VECTOR ( 'NONE', #1056, 1000.000000000000000 ) ;
#938 = CARTESIAN_POINT ( 'NONE',  ( -0.2500000000000000000, 0.5500000000000000444, -0.2999999999999999889 ) ) ;
#939 = SURFACE_STYLE_USAGE ( .BOTH. , #485 ) ;
#940 =( LENGTH_UNIT ( ) NAMED_UNIT ( * ) SI_UNIT ( .MILLI., .METRE. ) );
#941 = ADVANCED_FACE ( 'NONE', ( #736 ), #898, .F. ) ;
#942 = EDGE_LOOP ( 'NONE', ( #149, #764, #241, #234 ) ) ;
#943 = CARTESIAN_POINT ( 'NONE',  ( 0.2000000000000000111, 0.000000000000000000, -0.2500000000000000000 ) ) ;
#944 = FILL_AREA_STYLE_COLOUR ( '', #713 ) ;
#945 = VERTEX_POINT ( 'NONE', #921 ) ;
#946 = PRESENTATION_LAYER_ASSIGNMENT (  '', '', ( #446 ) ) ;
#947 = VECTOR ( 'NONE', #642, 1000.000000000000000 ) ;
#948 =( GEOMETRIC_REPRESENTATION_CONTEXT ( 3 ) GLOBAL_UNCERTAINTY_ASSIGNED_CONTEXT ( ( #629 ) ) GLOBAL_UNIT_ASSIGNED_CONTEXT ( ( #841, #575, #140 ) ) REPRESENTATION_CONTEXT ( 'NONE', 'WORKASPACE' ) );
#949 = ORIENTED_EDGE ( 'NONE', *, *, #656, .T. ) ;
#950 = COLOUR_RGB ( '',0.000000000000000000, 0.000000000000000000, 0.000000000000000000 ) ;
#951 =( GEOMETRIC_REPRESENTATION_CONTEXT ( 3 ) GLOBAL_UNCERTAINTY_ASSIGNED_CONTEXT ( ( #981 ) ) GLOBAL_UNIT_ASSIGNED_CONTEXT ( ( #374, #652, #129 ) ) REPRESENTATION_CONTEXT ( 'NONE', 'WORKASPACE' ) );
#952 = PRODUCT_RELATED_PRODUCT_CATEGORY ( 'part', '', ( #1032 ) ) ;
#953 = MECHANICAL_DESIGN_GEOMETRIC_PRESENTATION_REPRESENTATION (  '', ( #718 ), #951 ) ;
#954 = DIRECTION ( 'NONE',  ( 0.000000000000000000, -1.000000000000000000, 0.000000000000000000 ) ) ;
#955 = DIRECTION ( 'NONE',  ( 0.000000000000000000, 1.000000000000000000, 0.000000000000000000 ) ) ;
#956 = ORIENTED_EDGE ( 'NONE', *, *, #907, .F. ) ;
#957 = FACE_OUTER_BOUND ( 'NONE', #65, .T. ) ;
#958 = FILL_AREA_STYLE ('',( #177 ) ) ;
#959 = SURFACE_STYLE_FILL_AREA ( #1070 ) ;
#960 =( NAMED_UNIT ( * ) PLANE_ANGLE_UNIT ( ) SI_UNIT ( $, .RADIAN. ) );
#961 = FILL_AREA_STYLE_COLOUR ( '', #914 ) ;
#962 = ORIENTED_EDGE ( 'NONE', *, *, #570, .F. ) ;
#963 = LINE ( 'NONE', #1132, #520 ) ;
#964 = PLANE ( 'NONE',  #843 ) ;
#965 = ADVANCED_FACE ( 'NONE', ( #38 ), #657, .F. ) ;
#966 = EDGE_LOOP ( 'NONE', ( #779, #885, #919, #696 ) ) ;
#967 = SURFACE_STYLE_FILL_AREA ( #702 ) ;
#968 =( GEOMETRIC_REPRESENTATION_CONTEXT ( 3 ) GLOBAL_UNCERTAINTY_ASSIGNED_CONTEXT ( ( #48 ) ) GLOBAL_UNIT_ASSIGNED_CONTEXT ( ( #319, #757, #405 ) ) REPRESENTATION_CONTEXT ( 'NONE', 'WORKASPACE' ) );
#969 = UNCERTAINTY_MEASURE_WITH_UNIT (LENGTH_MEASURE( 1.000000000000000082E-05 ), #153, 'distance_accuracy_value', 'NONE');
#970 = DIRECTION ( 'NONE',  ( 3.614007241618350250E-16, 0.000000000000000000, 1.000000000000000000 ) ) ;
#971 =( LENGTH_UNIT ( ) NAMED_UNIT ( * ) SI_UNIT ( .MILLI., .METRE. ) );
#972 = STYLED_ITEM ( 'NONE', ( #837 ), #55 ) ;
#973 = FILL_AREA_STYLE_COLOUR ( '', #630 ) ;
#974 = ORIENTED_EDGE ( 'NONE', *, *, #920, .F. ) ;
#975 = EDGE_CURVE ( 'NONE', #61, #583, #671, .T. ) ;
#976 = DIRECTION ( 'NONE',  ( 0.000000000000000000, -1.000000000000000000, 0.000000000000000000 ) ) ;
#977 = CARTESIAN_POINT ( 'NONE',  ( -0.2000000000000000111, 0.02000000000000000042, 0.2500000000000000000 ) ) ;
#978 = LINE ( 'NONE', #786, #397 ) ;
#979 =( NAMED_UNIT ( * ) PLANE_ANGLE_UNIT ( ) SI_UNIT ( $, .RADIAN. ) );
#980 = ORIENTED_EDGE ( 'NONE', *, *, #231, .T. ) ;
#981 = UNCERTAINTY_MEASURE_WITH_UNIT (LENGTH_MEASURE( 1.000000000000000082E-05 ), #374, 'distance_accuracy_value', 'NONE');
#982 = ORIENTED_EDGE ( 'NONE', *, *, #886, .F. ) ;
#983 = AXIS2_PLACEMENT_3D ( 'NONE', #144, #1115, #1020 ) ;
#984 = MECHANICAL_DESIGN_GEOMETRIC_PRESENTATION_REPRESENTATION (  '', ( #823 ), #564 ) ;
#985 =( NAMED_UNIT ( * ) SI_UNIT ( $, .STERADIAN. ) SOLID_ANGLE_UNIT ( ) );
#986 = SURFACE_STYLE_USAGE ( .BOTH. , #913 ) ;
#987 = EDGE_CURVE ( 'NONE', #945, #1033, #680, .T. ) ;
#988 = PRESENTATION_STYLE_ASSIGNMENT (( #198 ) ) ;
#989 = COLOUR_RGB ( '',0.000000000000000000, 0.000000000000000000, 0.000000000000000000 ) ;
#990 = DIRECTION ( 'NONE',  ( 0.000000000000000000, -1.000000000000000000, 0.000000000000000000 ) ) ;
#991 = VECTOR ( 'NONE', #954, 1000.000000000000000 ) ;
#992 = LINE ( 'NONE', #542, #1044 ) ;
#993 = VERTEX_POINT ( 'NONE', #235 ) ;
#994 = PRODUCT_DEFINITION_SHAPE ( 'NONE', 'NONE',  #505 ) ;
#995 = CARTESIAN_POINT ( 'NONE',  ( 0.5000000000000000000, 0.02000000000000000042, 0.2500000000000000000 ) ) ;
#996 = SURFACE_STYLE_USAGE ( .BOTH. , #900 ) ;
#997 = DIRECTION ( 'NONE',  ( -1.000000000000000000, 0.000000000000000000, 0.000000000000000000 ) ) ;
#998 = EDGE_LOOP ( 'NONE', ( #533, #643, #321, #799 ) ) ;
#999 = CARTESIAN_POINT ( 'NONE',  ( -0.5000000000000000000, 0.02000000000000000042, 0.2500000000000000000 ) ) ;
#1000 = FILL_AREA_STYLE_COLOUR ( '', #989 ) ;
#1001 = EDGE_CURVE ( 'NONE', #9, #385, #1034, .T. ) ;
#1002 = VERTEX_POINT ( 'NONE', #943 ) ;
#1003 = UNCERTAINTY_MEASURE_WITH_UNIT (LENGTH_MEASURE( 1.000000000000000082E-05 ), #624, 'distance_accuracy_value', 'NONE');
#1004 = COLOUR_RGB ( '',0.2509803921568627416, 0.2509803921568627416, 0.2509803921568627416 ) ;
#1005 = PLANE ( 'NONE',  #157 ) ;
#1006 = MECHANICAL_DESIGN_GEOMETRIC_PRESENTATION_REPRESENTATION (  '', ( #593 ), #948 ) ;
#1007 = FILL_AREA_STYLE_COLOUR ( '', #911 ) ;
#1008 = SURFACE_STYLE_FILL_AREA ( #128 ) ;
#1009 =( GEOMETRIC_REPRESENTATION_CONTEXT ( 3 ) GLOBAL_UNCERTAINTY_ASSIGNED_CONTEXT ( ( #138 ) ) GLOBAL_UNIT_ASSIGNED_CONTEXT ( ( #139, #813, #749 ) ) REPRESENTATION_CONTEXT ( 'NONE', 'WORKASPACE' ) );
#1010 = FACE_OUTER_BOUND ( 'NONE', #1, .T. ) ;
#1011 = MECHANICAL_DESIGN_GEOMETRIC_PRESENTATION_REPRESENTATION (  '', ( #614 ), #247 ) ;
#1012 = EDGE_CURVE ( 'NONE', #1002, #61, #293, .T. ) ;
#1013 = ORIENTED_EDGE ( 'NONE', *, *, #368, .T. ) ;
#1014 = DIRECTION ( 'NONE',  ( 3.614007241618350250E-16, 0.000000000000000000, 1.000000000000000000 ) ) ;
#1015 = CARTESIAN_POINT ( 'NONE',  ( 0.5000000000000000000, 0.02000000000000000042, 0.2999999999999999889 ) ) ;
#1016 = CARTESIAN_POINT ( 'NONE',  ( -0.2500000000000000000, 0.5500000000000000444, -0.2999999999999999889 ) ) ;
#1017 =( LENGTH_UNIT ( ) NAMED_UNIT ( * ) SI_UNIT ( .MILLI., .METRE. ) );
#1018 = ORIENTED_EDGE ( 'NONE', *, *, #893, .T. ) ;
#1019 = EDGE_CURVE ( 'NONE', #707, #429, #419, .T. ) ;
#1020 = DIRECTION ( 'NONE',  ( 1.000000000000000000, 0.000000000000000000, 0.000000000000000000 ) ) ;
#1021 = DIRECTION ( 'NONE',  ( 0.000000000000000000, -1.000000000000000000, 0.000000000000000000 ) ) ;
#1022 = FILL_AREA_STYLE ('',( #1125 ) ) ;
#1023 = ORIENTED_EDGE ( 'NONE', *, *, #857, .T. ) ;
#1024 = STYLED_ITEM ( 'NONE', ( #616 ), #390 ) ;
#1025 = ADVANCED_FACE ( 'NONE', ( #957 ), #10, .F. ) ;
#1026 = SURFACE_SIDE_STYLE ('',( #491 ) ) ;
#1027 = COLOUR_RGB ( '',0.000000000000000000, 0.000000000000000000, 0.000000000000000000 ) ;
#1028 = PRESENTATION_LAYER_ASSIGNMENT (  '', '', ( #452 ) ) ;
#1029 = VERTEX_POINT ( 'NONE', #439 ) ;
#1030 = CARTESIAN_POINT ( 'NONE',  ( 0.2000000000000000111, 0.000000000000000000, 0.2500000000000000000 ) ) ;
#1031 = LINE ( 'NONE', #665, #427 ) ;
#1032 = PRODUCT ( 'CDBQR42', 'CDBQR42', '', ( #850 ) ) ;
#1033 = VERTEX_POINT ( 'NONE', #510 ) ;
#1034 = LINE ( 'NONE', #745, #26 ) ;
#1035 = PRESENTATION_STYLE_ASSIGNMENT (( #229 ) ) ;
#1036 = PLANE ( 'NONE',  #659 ) ;
#1037 = ORIENTED_EDGE ( 'NONE', *, *, #760, .F. ) ;
#1038 = ADVANCED_FACE ( 'NONE', ( #605 ), #340, .F. ) ;
#1039 = FILL_AREA_STYLE_COLOUR ( '', #934 ) ;
#1040 = DIRECTION ( 'NONE',  ( 0.000000000000000000, -1.000000000000000000, 0.000000000000000000 ) ) ;
#1041 = PRESENTATION_LAYER_ASSIGNMENT (  '', '', ( #130 ) ) ;
#1042 = AXIS2_PLACEMENT_3D ( 'NONE', #95, #434, #525 ) ;
#1043 = ORIENTED_EDGE ( 'NONE', *, *, #165, .F. ) ;
#1044 = VECTOR ( 'NONE', #976, 1000.000000000000000 ) ;
#1045 =( LENGTH_UNIT ( ) NAMED_UNIT ( * ) SI_UNIT ( .MILLI., .METRE. ) );
#1046 = PRODUCT_DEFINITION_FORMATION_WITH_SPECIFIED_SOURCE ( 'ANY', '', #1032, .NOT_KNOWN. ) ;
#1047 = CLOSED_SHELL ( 'NONE', ( #242, #87, #924, #574, #417, #941, #537, #317 ) ) ;
#1048 = COLOUR_RGB ( '',0.2509803921568627416, 0.2509803921568627416, 0.2509803921568627416 ) ;
#1049 = DIRECTION ( 'NONE',  ( 1.084202172485503818E-16, 0.000000000000000000, -1.000000000000000000 ) ) ;
#1050 = DIRECTION ( 'NONE',  ( 1.000000000000000000, 0.000000000000000000, -1.084202172485503818E-16 ) ) ;
#1051 = ORIENTED_EDGE ( 'NONE', *, *, #69, .T. ) ;
#1052 = CARTESIAN_POINT ( 'NONE',  ( -0.2000000000000000111, 0.02000000000000000042, -0.2500000000000000000 ) ) ;
#1053 = CARTESIAN_POINT ( 'NONE',  ( 0.000000000000000000, 0.000000000000000000, 0.000000000000000000 ) ) ;
#1054 = FACE_OUTER_BOUND ( 'NONE', #598, .T. ) ;
#1055 = EDGE_CURVE ( 'NONE', #1091, #793, #774, .T. ) ;
#1056 = DIRECTION ( 'NONE',  ( -1.000000000000000000, 0.000000000000000000, 0.000000000000000000 ) ) ;
#1057 = VERTEX_POINT ( 'NONE', #708 ) ;
#1058 = FACE_OUTER_BOUND ( 'NONE', #966, .T. ) ;
#1059 = EDGE_CURVE ( 'NONE', #1057, #1126, #963, .T. ) ;
#1060 = DIRECTION ( 'NONE',  ( 1.000000000000000000, 0.000000000000000000, 0.000000000000000000 ) ) ;
#1061 = SURFACE_SIDE_STYLE ('',( #166 ) ) ;
#1062 = VERTEX_POINT ( 'NONE', #168 ) ;
#1063 = CARTESIAN_POINT ( 'NONE',  ( -0.2500000000000000000, 0.5500000000000000444, -0.2999999999999999889 ) ) ;
#1064 = VECTOR ( 'NONE', #285, 1000.000000000000000 ) ;
#1065 = STYLED_ITEM ( 'NONE', ( #63 ), #723 ) ;
#1066 = CARTESIAN_POINT ( 'NONE',  ( -0.5000000000000000000, 0.5400000000000000355, -0.2999999999999999889 ) ) ;
#1067 = PRESENTATION_STYLE_ASSIGNMENT (( #715 ) ) ;
#1068 = PLANE ( 'NONE',  #243 ) ;
#1069 = VERTEX_POINT ( 'NONE', #1063 ) ;
#1070 = FILL_AREA_STYLE ('',( #253 ) ) ;
#1071 = ORIENTED_EDGE ( 'NONE', *, *, #433, .T. ) ;
#1072 = SURFACE_SIDE_STYLE ('',( #103 ) ) ;
#1073 = UNCERTAINTY_MEASURE_WITH_UNIT (LENGTH_MEASURE( 1.000000000000000082E-05 ), #90, 'distance_accuracy_value', 'NONE');
#1074 =( LENGTH_UNIT ( ) NAMED_UNIT ( * ) SI_UNIT ( .MILLI., .METRE. ) );
#1075 =( NAMED_UNIT ( * ) PLANE_ANGLE_UNIT ( ) SI_UNIT ( $, .RADIAN. ) );
#1076 = SURFACE_STYLE_FILL_AREA ( #727 ) ;
#1077 = FILL_AREA_STYLE ('',( #1099 ) ) ;
#1078 =( GEOMETRIC_REPRESENTATION_CONTEXT ( 3 ) GLOBAL_UNCERTAINTY_ASSIGNED_CONTEXT ( ( #112 ) ) GLOBAL_UNIT_ASSIGNED_CONTEXT ( ( #752, #761, #71 ) ) REPRESENTATION_CONTEXT ( 'NONE', 'WORKASPACE' ) );
#1079 = MECHANICAL_DESIGN_GEOMETRIC_PRESENTATION_REPRESENTATION (  '', ( #409 ), #315 ) ;
#1080 = COLOUR_RGB ( '',0.2509803921568627416, 0.2509803921568627416, 0.2509803921568627416 ) ;
#1081 = AXIS2_PLACEMENT_3D ( 'NONE', #662, #478, #572 ) ;
#1082 = SURFACE_STYLE_FILL_AREA ( #822 ) ;
#1083 =( NAMED_UNIT ( * ) SI_UNIT ( $, .STERADIAN. ) SOLID_ANGLE_UNIT ( ) );
#1084 = ORIENTED_EDGE ( 'NONE', *, *, #1059, .F. ) ;
#1085 = UNCERTAINTY_MEASURE_WITH_UNIT (LENGTH_MEASURE( 1.000000000000000082E-05 ), #268, 'distance_accuracy_value', 'NONE');
#1086 = PLANE ( 'NONE',  #461 ) ;
#1087 = FILL_AREA_STYLE_COLOUR ( '', #540 ) ;
#1088 = ADVANCED_FACE ( 'NONE', ( #515 ), #789, .F. ) ;
#1089 = LINE ( 'NONE', #661, #292 ) ;
#1090 =( NAMED_UNIT ( * ) PLANE_ANGLE_UNIT ( ) SI_UNIT ( $, .RADIAN. ) );
#1091 = VERTEX_POINT ( 'NONE', #842 ) ;
#1092 = CARTESIAN_POINT ( 'NONE',  ( 0.5000000000000000000, 0.02000000000000000042, -0.2500000000000000000 ) ) ;
#1093 = CARTESIAN_POINT ( 'NONE',  ( -0.2500000000000000000, 0.5400000000000000355, 0.000000000000000000 ) ) ;
#1094 =( GEOMETRIC_REPRESENTATION_CONTEXT ( 3 ) GLOBAL_UNCERTAINTY_ASSIGNED_CONTEXT ( ( #818 ) ) GLOBAL_UNIT_ASSIGNED_CONTEXT ( ( #551, #539, #726 ) ) REPRESENTATION_CONTEXT ( 'NONE', 'WORKASPACE' ) );
#1095 = UNCERTAINTY_MEASURE_WITH_UNIT (LENGTH_MEASURE( 1.000000000000000082E-05 ), #529, 'distance_accuracy_value', 'NONE');
#1096 = VECTOR ( 'NONE', #809, 1000.000000000000000 ) ;
#1097 = COLOUR_RGB ( '',0.000000000000000000, 0.000000000000000000, 0.000000000000000000 ) ;
#1098 = PRESENTATION_LAYER_ASSIGNMENT (  '', '', ( #75 ) ) ;
#1099 = FILL_AREA_STYLE_COLOUR ( '', #175 ) ;
#1100 = DIRECTION ( 'NONE',  ( 0.000000000000000000, 0.000000000000000000, -1.000000000000000000 ) ) ;
#1101 = ORIENTED_EDGE ( 'NONE', *, *, #743, .F. ) ;
#1102 = ADVANCED_FACE ( 'NONE', ( #297 ), #800, .F. ) ;
#1103 = SURFACE_SIDE_STYLE ('',( #482 ) ) ;
#1104 = SURFACE_STYLE_FILL_AREA ( #681 ) ;
#1105 = CARTESIAN_POINT ( 'NONE',  ( 0.5000000000000000000, 0.02000000000000000042, 0.2500000000000000000 ) ) ;
#1106 = PRESENTATION_STYLE_ASSIGNMENT (( #24 ) ) ;
#1107 = SURFACE_SIDE_STYLE ('',( #573 ) ) ;
#1108 = APPLICATION_CONTEXT ( 'automotive_design' ) ;
#1109 = ORIENTED_EDGE ( 'NONE', *, *, #975, .T. ) ;
#1110 = LINE ( 'NONE', #938, #494 ) ;
#1111 = DIRECTION ( 'NONE',  ( 0.000000000000000000, -1.000000000000000000, 0.000000000000000000 ) ) ;
#1112 = FACE_OUTER_BOUND ( 'NONE', #495, .T. ) ;
#1113 = VERTEX_POINT ( 'NONE', #621 ) ;
#1114 =( GEOMETRIC_REPRESENTATION_CONTEXT ( 3 ) GLOBAL_UNCERTAINTY_ASSIGNED_CONTEXT ( ( #1073 ) ) GLOBAL_UNIT_ASSIGNED_CONTEXT ( ( #90, #876, #871 ) ) REPRESENTATION_CONTEXT ( 'NONE', 'WORKASPACE' ) );
#1115 = DIRECTION ( 'NONE',  ( -0.000000000000000000, 1.000000000000000000, 0.000000000000000000 ) ) ;
#1116 = DIRECTION ( 'NONE',  ( 0.000000000000000000, -1.000000000000000000, 0.000000000000000000 ) ) ;
#1117 = VECTOR ( 'NONE', #254, 1000.000000000000000 ) ;
#1118 = VECTOR ( 'NONE', #496, 1000.000000000000000 ) ;
#1119 = VERTEX_POINT ( 'NONE', #637 ) ;
#1120 = MECHANICAL_DESIGN_GEOMETRIC_PRESENTATION_REPRESENTATION (  '', ( #674 ), #262 ) ;
#1121 = DIRECTION ( 'NONE',  ( 1.000000000000000000, 0.000000000000000000, 0.000000000000000000 ) ) ;
#1122 = DIRECTION ( 'NONE',  ( 0.000000000000000000, 0.000000000000000000, -1.000000000000000000 ) ) ;
#1123 = SHAPE_DEFINITION_REPRESENTATION ( #994, #123 ) ;
#1124 = EDGE_CURVE ( 'NONE', #1113, #1002, #992, .T. ) ;
#1125 = FILL_AREA_STYLE_COLOUR ( '', #45 ) ;
#1126 = VERTEX_POINT ( 'NONE', #904 ) ;
#1127 = CARTESIAN_POINT ( 'NONE',  ( -0.2500000000000000000, 0.5500000000000000444, 0.2999999999999999889 ) ) ;
#1128 = DIRECTION ( 'NONE',  ( 1.000000000000000000, 0.000000000000000000, 0.000000000000000000 ) ) ;
#1129 = SURFACE_SIDE_STYLE ('',( #82 ) ) ;
#1130 = EDGE_CURVE ( 'NONE', #385, #471, #534, .T. ) ;
#1131 = EDGE_LOOP ( 'NONE', ( #266, #167, #750, #579 ) ) ;
#1132 = CARTESIAN_POINT ( 'NONE',  ( -0.5000000000000000000, 0.02000000000000000042, 0.2500000000000000000 ) ) ;
#1133 = DIRECTION ( 'NONE',  ( 1.000000000000000000, 0.000000000000000000, 2.168404344971010101E-16 ) ) ;
#1134 =( GEOMETRIC_REPRESENTATION_CONTEXT ( 3 ) GLOBAL_UNCERTAINTY_ASSIGNED_CONTEXT ( ( #355 ) ) GLOBAL_UNIT_ASSIGNED_CONTEXT ( ( #737, #53, #197 ) ) REPRESENTATION_CONTEXT ( 'NONE', 'WORKASPACE' ) );
#1135 = SURFACE_SIDE_STYLE ('',( #532 ) ) ;
#1136 =( GEOMETRIC_REPRESENTATION_CONTEXT ( 3 ) GLOBAL_UNCERTAINTY_ASSIGNED_CONTEXT ( ( #465 ) ) GLOBAL_UNIT_ASSIGNED_CONTEXT ( ( #473, #288, #568 ) ) REPRESENTATION_CONTEXT ( 'NONE', 'WORKASPACE' ) );
#1137 = FACE_OUTER_BOUND ( 'NONE', #180, .T. ) ;
#1138 = PRESENTATION_LAYER_ASSIGNMENT (  '', '', ( #25 ) ) ;
ENDSEC;
END-ISO-10303-21;
